<?xml version="1.0" encoding="UTF-8"?>
<!DOCTYPE svg PUBLIC "-//W3C//DTD SVG 1.1//EN" "http://www.w3.org/Graphics/SVG/1.1/DTD/svg11.dtd">
<svg xmlns="http://www.w3.org/2000/svg" version="1.1" width="1600px" height="1920px" style="shape-rendering:geometricPrecision; text-rendering:geometricPrecision; image-rendering:optimizeQuality; fill-rule:evenodd; clip-rule:evenodd" xmlns:xlink="http://www.w3.org/1999/xlink">
<g><path style="opacity:0.996" fill="#000000" d="M 618.5,-0.5 C 679.167,-0.5 739.833,-0.5 800.5,-0.5C 836.486,7.98625 858.653,30.3196 867,66.5C 868.191,79.1389 868.691,91.8056 868.5,104.5C 880.838,104.333 893.171,104.5 905.5,105C 942.304,110.803 964.471,131.97 972,168.5C 973.109,190.977 973.609,213.477 973.5,236C 973.333,255.167 973.167,274.333 973,293.5C 970.607,329.488 952.44,353.322 918.5,365C 906.562,367.178 894.562,368.845 882.5,370C 875.165,372.67 870.665,377.837 869,385.5C 868.5,405.831 868.333,426.164 868.5,446.5C 887.836,446.333 907.17,446.5 926.5,447C 927.833,448.333 929.167,449.667 930.5,451C 1028.48,502.29 1116.31,567.456 1194,646.5C 1221.55,631.33 1250.05,629.496 1279.5,641C 1328.86,664.683 1378.2,688.349 1427.5,712C 1449.14,726.307 1463.97,745.807 1472,770.5C 1514.44,927.979 1556.94,1085.31 1599.5,1242.5C 1599.5,1252.17 1599.5,1261.83 1599.5,1271.5C 1592.32,1310.64 1569.99,1337.14 1532.5,1351C 1495.2,1360.78 1458.03,1370.95 1421,1381.5C 1413.5,1612.48 1303,1770.98 1089.5,1857C 1008.54,1887.73 924.875,1906.73 838.5,1914C 812.708,1916.29 787.042,1918.12 761.5,1919.5C 726.833,1919.5 692.167,1919.5 657.5,1919.5C 560.147,1916.55 464.813,1900.72 371.5,1872C 289.493,1846.19 216.493,1805.19 152.5,1749C 70.8486,1671.54 22.0152,1576.71 6,1464.5C 3.22581,1444.41 1.05915,1424.41 -0.5,1404.5C -0.5,1383.17 -0.5,1361.83 -0.5,1340.5C 6.19641,1274.91 25.6964,1213.24 58,1155.5C 93.0751,1094.41 135.075,1038.41 184,987.5C 243.965,925.842 307.799,869.009 375.5,817C 419.298,783.269 463.631,750.269 508.5,718C 522.091,707.287 535.591,696.453 549,685.5C 549.92,682.899 550.587,680.232 551,677.5C 551.5,618.168 551.667,558.834 551.5,499.5C 530.446,499.954 509.446,499.454 488.5,498C 477.632,493.275 472.299,484.941 472.5,473C 472.331,459.512 478.664,450.845 491.5,447C 511.497,446.5 531.497,446.333 551.5,446.5C 551.667,427.497 551.5,408.497 551,389.5C 550.353,379.857 545.519,373.357 536.5,370C 516.663,369.9 497.996,365.234 480.5,356C 461.56,342.703 450.393,324.536 447,301.5C 446.333,258.167 446.333,214.833 447,171.5C 453.167,133.333 475.333,111.167 513.5,105C 526.162,104.5 538.829,104.333 551.5,104.5C 546.642,74.9257 553.475,48.5923 572,25.5C 585.029,12.2398 600.529,3.57315 618.5,-0.5 Z M 868.5,499.5 C 883.837,499.333 899.17,499.5 914.5,500C 970.401,532.44 1024.07,568.107 1075.5,607C 1104.19,630.354 1131.69,655.187 1158,681.5C 1158.67,682.833 1158.67,684.167 1158,685.5C 1131.58,724.674 1104.91,763.674 1078,802.5C 1073.31,809.879 1069.14,817.545 1065.5,825.5C 1005.68,776.502 944.008,730.002 880.5,686C 876.631,682.466 873.131,678.633 870,674.5C 868.512,616.225 868.012,557.892 868.5,499.5 Z"/></g>
<g><path style="opacity:1" fill="#fefefe" d="M 517.5,157.5 C 645.5,157.333 773.5,157.5 901.5,158C 912.548,160.383 918.715,167.217 920,178.5C 920.667,216.833 920.667,255.167 920,293.5C 919.325,302.694 914.825,309.194 906.5,313C 895.904,314.848 885.238,316.182 874.5,317C 839.363,326.474 819.53,349.308 815,385.5C 814.5,405.831 814.333,426.164 814.5,446.5C 744.5,446.5 674.5,446.5 604.5,446.5C 604.914,423.135 604.414,399.802 603,376.5C 595.158,344.658 575.324,324.824 543.5,317C 534.145,316.132 524.812,315.132 515.5,314C 507.974,311.807 503.14,306.974 501,299.5C 499.356,258.213 499.023,216.88 500,175.5C 502.683,166.318 508.517,160.318 517.5,157.5 Z"/></g>
<g><path style="opacity:1" fill="#fefefe" d="M 1119.5,1090.5 C 1103.2,1092.49 1086.53,1093.15 1069.5,1092.5C 811.331,1091.63 553.165,1090.3 295,1088.5C 276.833,1088.83 258.667,1089.17 240.5,1089.5C 203.173,1132.45 173.673,1180.45 152,1233.5C 131.956,1287.24 125.956,1342.57 134,1399.5C 152.822,1553.39 232.656,1662.22 373.5,1726C 431.187,1751.09 491.187,1768.09 553.5,1777C 659.539,1791.24 765.539,1790.91 871.5,1776C 941.835,1765.44 1008.83,1744.44 1072.5,1713C 1183.98,1655.16 1252.81,1564.66 1279,1441.5C 1280.49,1432.87 1281.66,1424.2 1282.5,1415.5C 1288.18,1415.26 1293.85,1414.76 1299.5,1414C 1321.48,1407.73 1343.48,1401.56 1365.5,1395.5C 1364.34,1495.14 1333.84,1584.48 1274,1663.5C 1235.25,1710.61 1189.08,1748.44 1135.5,1777C 1072.98,1809.73 1006.98,1832.73 937.5,1846C 826.96,1866.45 715.627,1872.12 603.5,1863C 516.484,1856.83 432.151,1838.49 350.5,1808C 280.882,1781.63 220.049,1742.13 168,1689.5C 106.589,1622.39 69.9223,1543.39 58,1452.5C 53.1027,1416.32 51.436,1379.99 53,1343.5C 55.9841,1306.9 64.3175,1271.56 78,1237.5C 103.591,1177.61 137.258,1122.94 179,1073.5C 233.944,1009.48 294.111,950.98 359.5,898C 425.03,845.798 491.697,795.132 559.5,746C 569.959,737.876 580.126,729.376 590,720.5C 597.614,709.329 602.281,696.996 604,683.5C 604.5,622.168 604.667,560.834 604.5,499.5C 674.5,499.5 744.5,499.5 814.5,499.5C 814.333,557.501 814.5,615.501 815,673.5C 818.192,693.051 827.025,709.551 841.5,723C 901.442,764.476 959.776,808.143 1016.5,854C 1033.96,868.46 1051.13,883.293 1068,898.5C 1085.79,962.34 1102.96,1026.34 1119.5,1090.5 Z"/></g>
<g><path style="opacity:1" fill="#fefefe" d="M 1233.5,686.5 C 1242.13,685.725 1250.46,686.892 1258.5,690C 1306.96,713.061 1355.29,736.394 1403.5,760C 1412.31,767.777 1418.47,777.277 1422,788.5C 1463.33,941.833 1504.67,1095.17 1546,1248.5C 1549.36,1272.96 1539.86,1290.13 1517.5,1300C 1441.41,1320.36 1365.41,1341.02 1289.5,1362C 1267.35,1364.68 1251.19,1356.18 1241,1336.5C 1197.85,1177.23 1155.02,1017.89 1112.5,858.5C 1113.39,848.994 1116.56,840.327 1122,832.5C 1146.3,796.696 1170.8,761.029 1195.5,725.5C 1201.88,733.056 1207.71,741.056 1213,749.5C 1223.12,761.579 1235.95,765.746 1251.5,762C 1259.34,754.484 1262.84,745.318 1262,734.5C 1252.17,718.494 1241.33,703.161 1229.5,688.5C 1230.95,687.828 1232.28,687.161 1233.5,686.5 Z"/></g>
<g><path style="opacity:1" fill="#a4a4a4" d="M 1119.5,1090.5 C 1120.4,1091.21 1120.74,1092.21 1120.5,1093.5C 1103.33,1093.83 1086.33,1093.5 1069.5,1092.5C 1086.53,1093.15 1103.2,1092.49 1119.5,1090.5 Z"/></g>
</svg>
