<?xml version="1.0" standalone="no"?>
<!DOCTYPE svg PUBLIC "-//W3C//DTD SVG 20010904//EN"
 "http://www.w3.org/TR/2001/REC-SVG-20010904/DTD/svg10.dtd">
<svg version="1.0" xmlns="http://www.w3.org/2000/svg"
 width="1920.000000pt" height="1277.000000pt" viewBox="0 0 1920.000000 1277.000000"
 preserveAspectRatio="xMidYMid meet">

<g transform="translate(0.000000,1277.000000) scale(0.100000,-0.100000)"
fill="#000000" stroke="none">
<path d="M331 12754 c-161 -43 -287 -176 -320 -337 -8 -37 -10 -1802 -9 -6062
l3 -6010 23 -56 c50 -126 151 -223 274 -266 51 -17 357 -18 9298 -18 8941 0
9247 1 9298 18 123 43 224 140 274 266 l23 56 3 6010 c1 4260 -1 6025 -9 6062
-34 165 -158 294 -326 338 -51 13 -1134 15 -9268 14 -8015 0 -9217 -2 -9264
-15z m17199 -878 c-46 -42 -6041 -5035 -6111 -5089 -734 -565 -1710 -758
-2600 -513 -370 102 -730 278 -1014 495 -54 41 -6099 5074 -6135 5107 -12 12
1204 14 7930 14 6693 0 7942 -2 7930 -14z m-13480 -3127 c1719 -1432 3180
-2645 3248 -2696 169 -127 354 -241 567 -348 418 -211 825 -332 1315 -391 202
-25 638 -25 840 0 681 82 1287 313 1819 692 62 43 1544 1272 3294 2730 l3182
2651 3 -2433 c1 -1339 1 -3529 0 -4868 l-3 -2433 -2124 2530 c-2317 2759
-2163 2584 -2305 2622 -47 13 -88 16 -150 13 -72 -4 -96 -10 -159 -41 -163
-81 -258 -245 -244 -422 7 -87 35 -165 86 -231 21 -29 1019 -1219 2217 -2645
l2177 -2594 -4106 -3 c-2259 -1 -5955 -1 -8214 0 l-4106 3 2183 2600 c1201
1430 2198 2620 2216 2645 94 127 108 314 35 459 -37 72 -117 148 -198 188 -63
31 -87 37 -159 41 -62 3 -103 0 -150 -13 -134 -36 -129 -31 -754 -776 -316
-376 -750 -893 -965 -1149 -215 -256 -604 -719 -865 -1030 -261 -311 -780
-929 -1154 -1375 -373 -445 -683 -814 -687 -819 -5 -6 -9 2181 -9 4864 l0
4873 23 -20 c12 -11 1428 -1192 3147 -2624z"/>
</g>
</svg>
