<?xml version="1.0" encoding="UTF-8"?>
<!DOCTYPE svg PUBLIC "-//W3C//DTD SVG 1.1//EN" "http://www.w3.org/Graphics/SVG/1.1/DTD/svg11.dtd">
<svg xmlns="http://www.w3.org/2000/svg" version="1.1" width="1280px" height="640px" style="shape-rendering:geometricPrecision; text-rendering:geometricPrecision; image-rendering:optimizeQuality; fill-rule:evenodd; clip-rule:evenodd" xmlns:xlink="http://www.w3.org/1999/xlink">
<g><path style="opacity:1" fill="#fefefe" d="M -0.5,-0.5 C 426.167,-0.5 852.833,-0.5 1279.5,-0.5C 1279.5,107.833 1279.5,216.167 1279.5,324.5C 1240.47,324.184 1201.47,324.518 1162.5,325.5C 1162.59,322.848 1161.92,320.515 1160.5,318.5C 1159.11,310.33 1157.11,302.33 1154.5,294.5C 1154.25,290.2 1153.25,286.2 1151.5,282.5C 1148.05,266.647 1143.88,250.981 1139,235.5C 1134.94,232.085 1130.44,231.585 1125.5,234C 1122.91,239.143 1121.58,244.643 1121.5,250.5C 1120.1,253.909 1119.43,257.575 1119.5,261.5C 1119.5,262.5 1119.5,263.5 1119.5,264.5C 1117.19,275.95 1115.52,287.617 1114.5,299.5C 1112.95,303.567 1112.28,307.9 1112.5,312.5C 1110.9,316.9 1110.23,321.566 1110.5,326.5C 1107.94,337.952 1105.77,349.619 1104,361.5C 1099.31,393.804 1094.81,426.137 1090.5,458.5C 1089.55,459.919 1089.22,461.585 1089.5,463.5C 1088.1,466.909 1087.43,470.575 1087.5,474.5C 1087.5,475.167 1087.5,475.833 1087.5,476.5C 1085.27,487.954 1083.61,499.621 1082.5,511.5C 1081.83,513.5 1081.17,515.5 1080.5,517.5C 1079.77,518.808 1078.93,520.142 1078,521.5C 1077.67,520.833 1077.33,520.167 1077,519.5C 1076.78,520.938 1076.28,522.271 1075.5,523.5C 1074.67,516.524 1074.17,509.524 1074,502.5C 1073.29,501.619 1072.46,500.953 1071.5,500.5C 1071.5,498.833 1071.5,497.167 1071.5,495.5C 1071.29,485.611 1070.29,475.944 1068.5,466.5C 1066.14,424.275 1062.8,382.275 1058.5,340.5C 1058.9,328.9 1057.9,317.566 1055.5,306.5C 1055.07,283.355 1053.41,260.355 1050.5,237.5C 1050.78,228.944 1050.11,220.61 1048.5,212.5C 1048.13,198.307 1047.13,184.307 1045.5,170.5C 1043.58,142.825 1041.58,115.158 1039.5,87.5C 1037.55,62.8337 1035.38,38.167 1033,13.5C 1032.62,12.0577 1031.79,11.0577 1030.5,10.5C 1030.39,9.88258 1030.06,9.38258 1029.5,9C 1024.43,7.50528 1020.26,8.67194 1017,12.5C 1016.52,13.448 1016.35,14.448 1016.5,15.5C 1013.67,36.6105 1011.67,57.9439 1010.5,79.5C 1007.62,102.413 1005.62,125.413 1004.5,148.5C 1002.55,162.633 1001.22,176.967 1000.5,191.5C 998.554,206.304 997.221,221.304 996.5,236.5C 994.642,249.972 993.309,263.639 992.5,277.5C 990.95,285.749 990.283,294.082 990.5,302.5C 988.874,308.928 988.207,315.595 988.5,322.5C 988.5,323.167 988.5,323.833 988.5,324.5C 986.554,338.633 985.221,352.967 984.5,367.5C 978.214,357.203 972.381,346.536 967,335.5C 964.99,331.676 962.49,328.342 959.5,325.5C 959.5,325.167 959.5,324.833 959.5,324.5C 882.174,322.503 804.507,321.836 726.5,322.5C 726.5,322.167 726.5,321.833 726.5,321.5C 755.984,298.917 785.318,276.084 814.5,253C 829.272,240.23 843.439,226.73 857,212.5C 869.239,197.359 878.906,180.693 886,162.5C 887.74,157.965 888.906,153.298 889.5,148.5C 890.768,146.095 891.435,143.428 891.5,140.5C 896.469,89.9362 877.135,51.7696 833.5,26C 818.798,17.9078 803.131,12.7411 786.5,10.5C 785.391,9.71003 784.058,9.21003 782.5,9C 768.5,8.33333 754.5,8.33333 740.5,9C 736.535,9.1077 732.868,9.94103 729.5,11.5C 697.951,17.8529 672.118,33.5195 652,58.5C 632.208,34.3537 607.042,19.0204 576.5,12.5C 572.133,10.7418 567.466,9.5751 562.5,9C 548.833,8.33333 535.167,8.33333 521.5,9C 519.618,9.19808 517.952,9.69808 516.5,10.5C 480.088,16.2858 450.921,33.9525 429,63.5C 419.542,77.077 414.042,92.077 412.5,108.5C 411.342,117.657 411.176,126.991 412,136.5C 412.05,141.127 412.883,145.46 414.5,149.5C 420.415,177.666 433.415,201.999 453.5,222.5C 463.69,233.857 474.69,244.357 486.5,254C 516.396,276.114 545.73,298.948 574.5,322.5C 533.595,322.854 492.595,322.854 451.5,322.5C 412.494,322.5 373.828,323.167 335.5,324.5C 335.5,324.833 335.5,325.167 335.5,325.5C 335.5,325.833 335.5,326.167 335.5,326.5C 333.376,327.031 331.876,328.365 331,330.5C 324.245,342.986 317.412,355.319 310.5,367.5C 309.779,352.967 308.446,338.633 306.5,324.5C 305.47,302.031 303.47,279.698 300.5,257.5C 299.422,235.272 297.422,213.272 294.5,191.5C 293.779,176.967 292.446,162.633 290.5,148.5C 290.13,135.97 289.13,123.637 287.5,111.5C 287.116,101.389 286.116,91.3889 284.5,81.5C 283.422,59.272 281.422,37.272 278.5,15.5C 278.771,13.6203 278.104,12.287 276.5,11.5C 276.423,10.2502 275.756,9.41691 274.5,9C 271.5,8.33333 268.5,8.33333 265.5,9C 263.951,10.214 262.785,11.714 262,13.5C 259.541,38.8106 257.374,64.1439 255.5,89.5C 253.873,107.808 252.54,126.141 251.5,144.5C 249.215,166.973 247.548,189.64 246.5,212.5C 239.248,296.974 232.581,381.64 226.5,466.5C 225.112,475.67 224.112,485.004 223.5,494.5C 222.476,512.215 220.976,529.882 219,547.5C 214.621,523.254 210.787,498.92 207.5,474.5C 207.57,470.575 206.903,466.909 205.5,463.5C 201.803,435.026 197.47,406.692 192.5,378.5C 191.761,365.167 189.761,352.167 186.5,339.5C 185.438,325.903 183.438,312.57 180.5,299.5C 179.48,287.617 177.813,275.95 175.5,264.5C 175.5,263.5 175.5,262.5 175.5,261.5C 175.57,257.575 174.903,253.909 173.5,250.5C 173.768,248.901 173.434,247.568 172.5,246.5C 174.038,235.353 169.371,230.853 158.5,233C 156.859,234.129 155.859,235.629 155.5,237.5C 150.753,252.203 146.753,267.203 143.5,282.5C 141.755,286.2 140.755,290.2 140.5,294.5C 137.368,304.696 134.701,315.029 132.5,325.5C 98.531,324.521 64.531,324.187 30.5,324.5C 20.1667,324.5 9.83333,324.5 -0.5,324.5C -0.5,216.167 -0.5,107.833 -0.5,-0.5 Z"/></g>
<g><path style="opacity:1" fill="#b7302d" d="M 786.5,10.5 C 767.45,8.87303 748.45,9.20636 729.5,11.5C 732.868,9.94103 736.535,9.1077 740.5,9C 754.5,8.33333 768.5,8.33333 782.5,9C 784.058,9.21003 785.391,9.71003 786.5,10.5 Z"/></g>
<g><path style="opacity:1" fill="#b72828" d="M 576.5,12.5 C 556.605,9.36357 536.605,8.6969 516.5,10.5C 517.952,9.69808 519.618,9.19808 521.5,9C 535.167,8.33333 548.833,8.33333 562.5,9C 567.466,9.5751 572.133,10.7418 576.5,12.5 Z"/></g>
<g><path style="opacity:1" fill="#fefefe" d="M 715.5,308.5 C 710.412,312.039 705.745,316.039 701.5,320.5C 699.629,320.859 698.129,321.859 697,323.5C 696.5,329.825 696.334,336.158 696.5,342.5C 781.169,342.167 865.836,342.5 950.5,343.5C 950.942,344.739 951.609,345.739 952.5,346.5C 961.108,363.61 969.941,380.61 979,397.5C 981.167,399.667 983.333,401.833 985.5,404C 989.027,404.808 992.36,404.641 995.5,403.5C 997.828,402.264 998.994,400.264 999,397.5C 1000.19,390.214 1000.69,382.881 1000.5,375.5C 1001.89,370.731 1002.56,365.731 1002.5,360.5C 1003.87,350.888 1004.54,341.222 1004.5,331.5C 1005.89,326.731 1006.56,321.731 1006.5,316.5C 1007.83,299.494 1009.17,282.494 1010.5,265.5C 1011.89,260.731 1012.56,255.731 1012.5,250.5C 1012.5,248.167 1012.5,245.833 1012.5,243.5C 1014.49,229.036 1015.82,214.369 1016.5,199.5C 1017.89,194.731 1018.56,189.731 1018.5,184.5C 1018.83,179.833 1019.17,175.167 1019.5,170.5C 1021.04,158.69 1022.04,146.69 1022.5,134.5C 1022.99,131.444 1023.65,129.111 1024.5,127.5C 1024.45,133.389 1025.12,139.056 1026.5,144.5C 1028.85,181.524 1031.52,218.524 1034.5,255.5C 1035.83,269.474 1036.83,283.474 1037.5,297.5C 1037.6,303.373 1038.26,309.04 1039.5,314.5C 1040.19,328.524 1041.19,342.524 1042.5,356.5C 1046.15,404.675 1050.15,452.675 1054.5,500.5C 1056.97,545.584 1060.47,590.584 1065,635.5C 1066.4,637.07 1067.9,638.404 1069.5,639.5C 788.167,639.5 506.833,639.5 225.5,639.5C 227.103,638.404 228.603,637.07 230,635.5C 235.868,573.915 240.701,512.249 244.5,450.5C 245.81,444.712 246.477,438.712 246.5,432.5C 246.5,429.833 246.5,427.167 246.5,424.5C 247.884,419.056 248.55,413.389 248.5,407.5C 251.498,370.859 254.165,334.193 256.5,297.5C 257.737,292.04 258.404,286.373 258.5,280.5C 258.5,277.5 258.5,274.5 258.5,271.5C 262.846,223.681 266.846,175.681 270.5,127.5C 273.124,145.72 275.124,164.72 276.5,184.5C 276.444,189.731 277.111,194.731 278.5,199.5C 278.87,212.03 279.87,224.363 281.5,236.5C 281.842,246.38 282.842,256.046 284.5,265.5C 284.5,267.833 284.5,270.167 284.5,272.5C 284.444,277.731 285.111,282.731 286.5,287.5C 287.793,311.899 289.793,336.233 292.5,360.5C 292.444,365.731 293.111,370.731 294.5,375.5C 294.163,384.285 294.997,392.952 297,401.5C 300.898,405.368 305.065,406.034 309.5,403.5C 312.5,401.332 315,398.666 317,395.5C 326.529,377.772 336.029,360.105 345.5,342.5C 432.167,342.5 518.833,342.5 605.5,342.5C 605.823,336.31 605.49,330.31 604.5,324.5C 601.052,319.713 596.719,316.046 591.5,313.5C 590.674,311.736 589.341,310.402 587.5,309.5C 558.353,286.53 529.019,263.697 499.5,241C 477.72,223.535 459.553,203.035 445,179.5C 430.782,152.888 427.115,124.888 434,95.5C 448.602,60.2392 474.435,37.7392 511.5,28C 545.537,20.7511 577.537,25.7511 607.5,43C 622.381,52.2146 634.215,64.3812 643,79.5C 645.819,84.468 648.653,89.468 651.5,94.5C 675.847,46.4741 715.18,23.3074 769.5,25C 808.267,27.7925 838.767,44.9592 861,76.5C 871.332,95.1829 874.998,115.183 872,136.5C 867.994,161.538 857.661,183.538 841,202.5C 829.466,215.701 816.966,227.867 803.5,239C 779.347,257.909 755.014,276.576 730.5,295C 725.305,299.366 720.305,303.866 715.5,308.5 Z"/></g>
<g><path style="opacity:1" fill="#d82528" d="M 1030.5,10.5 C 1031.79,11.0577 1032.62,12.0577 1033,13.5C 1035.38,38.167 1037.55,62.8337 1039.5,87.5C 1038.88,87.3893 1038.38,87.056 1038,86.5C 1037.41,80.8247 1036.74,75.158 1036,69.5C 1034.91,72.6912 1034.08,76.0245 1033.5,79.5C 1032.67,75.3587 1032,71.1921 1031.5,67C 1031.75,64.5777 1032.58,62.4111 1034,60.5C 1034.17,56.5 1034.33,52.5 1034.5,48.5C 1034.64,43.9909 1034.14,39.6576 1033,35.5C 1032.83,40.8642 1032.33,46.1975 1031.5,51.5C 1030.28,51.1131 1029.61,50.2798 1029.5,49C 1030.17,40.9272 1031.17,32.9272 1032.5,25C 1032.32,20.0801 1031.65,15.2467 1030.5,10.5 Z"/></g>
<g><path style="opacity:1" fill="#d3272a" d="M 1016.5,15.5 C 1016.64,22.3565 1016.31,29.1898 1015.5,36C 1015.49,38.2998 1015.99,40.4664 1017,42.5C 1017.33,42.1667 1017.67,41.8333 1018,41.5C 1018.81,43.5787 1018.64,45.5787 1017.5,47.5C 1016.72,46.2713 1016.22,44.938 1016,43.5C 1015.67,43.8333 1015.33,44.1667 1015,44.5C 1014.48,50.8503 1014.64,57.1836 1015.5,63.5C 1014.5,63.5 1013.5,63.5 1012.5,63.5C 1012.84,69.0984 1012.18,74.4317 1010.5,79.5C 1011.67,57.9439 1013.67,36.6105 1016.5,15.5 Z"/></g>
<g><path style="opacity:1" fill="#d32729" d="M 278.5,15.5 C 281.422,37.272 283.422,59.272 284.5,81.5C 282.943,75.7386 282.276,69.7386 282.5,63.5C 281.5,63.5 280.5,63.5 279.5,63.5C 280.427,57.1889 280.594,50.8556 280,44.5C 278.167,41.9983 277.334,39.1649 277.5,36C 278.311,29.1898 278.644,22.3565 278.5,15.5 Z"/></g>
<g><path style="opacity:1" fill="#e12128" d="M 276.5,11.5 C 273.384,10.0183 270.384,10.185 267.5,12C 272.573,13.1162 272.406,14.2829 267,15.5C 265.846,13.0426 264.512,13.0426 263,15.5C 262.333,21.5 262.333,27.5 263,33.5C 264.188,38.5257 265.022,43.6923 265.5,49C 265.387,50.2798 264.72,51.1131 263.5,51.5C 262.833,46.5 262.167,41.5 261.5,36.5C 259.841,48.7273 260.508,60.7273 263.5,72.5C 264.281,71.2713 264.781,69.938 265,68.5C 265.657,72.3256 266.823,75.8256 268.5,79C 267.703,82.7454 267.203,86.5787 267,90.5C 265.916,89.3349 265.083,88.0016 264.5,86.5C 265.374,84.2534 265.708,81.9201 265.5,79.5C 264.167,79.5 262.833,79.5 261.5,79.5C 261.286,77.8561 261.62,76.3561 262.5,75C 260.862,72.8665 260.029,70.3665 260,67.5C 259.667,67.8333 259.333,68.1667 259,68.5C 258.667,75.5 258.333,82.5 258,89.5C 257.23,90.5981 256.397,90.5981 255.5,89.5C 257.374,64.1439 259.541,38.8106 262,13.5C 262.785,11.714 263.951,10.214 265.5,9C 268.5,8.33333 271.5,8.33333 274.5,9C 275.756,9.41691 276.423,10.2502 276.5,11.5 Z"/></g>
<g><path style="opacity:1" fill="#ea1e26" d="M 576.5,12.5 C 607.042,19.0204 632.208,34.3537 652,58.5C 672.118,33.5195 697.951,17.8529 729.5,11.5C 748.45,9.20636 767.45,8.87303 786.5,10.5C 803.131,12.7411 818.798,17.9078 833.5,26C 877.135,51.7696 896.469,89.9362 891.5,140.5C 889.96,142.838 889.294,145.505 889.5,148.5C 888.906,153.298 887.74,157.965 886,162.5C 878.906,180.693 869.239,197.359 857,212.5C 843.439,226.73 829.272,240.23 814.5,253C 785.318,276.084 755.984,298.917 726.5,321.5C 725.411,319.883 723.744,319.05 721.5,319C 721.697,314.985 721.697,310.818 721.5,306.5C 719.315,306.704 717.315,307.37 715.5,308.5C 720.305,303.866 725.305,299.366 730.5,295C 755.014,276.576 779.347,257.909 803.5,239C 816.966,227.867 829.466,215.701 841,202.5C 857.661,183.538 867.994,161.538 872,136.5C 874.998,115.183 871.332,95.1829 861,76.5C 838.767,44.9592 808.267,27.7925 769.5,25C 715.18,23.3074 675.847,46.4741 651.5,94.5C 648.653,89.468 645.819,84.468 643,79.5C 634.215,64.3812 622.381,52.2146 607.5,43C 577.537,25.7511 545.537,20.7511 511.5,28C 474.435,37.7392 448.602,60.2392 434,95.5C 427.115,124.888 430.782,152.888 445,179.5C 459.553,203.035 477.72,223.535 499.5,241C 529.019,263.697 558.353,286.53 587.5,309.5C 585.322,308.071 582.989,307.237 580.5,307C 581.357,307.689 582.023,308.522 582.5,309.5C 576.411,312.137 576.411,313.471 582.5,313.5C 582.5,314.833 582.5,316.167 582.5,317.5C 581.022,317.238 579.689,317.571 578.5,318.5C 580.668,320.455 583.002,321.121 585.5,320.5C 584.652,322.409 584.318,324.409 584.5,326.5C 580.935,328.116 577.268,329.449 573.5,330.5C 494.216,330.809 414.882,330.476 335.5,329.5C 410.164,328.667 484.831,328.167 559.5,328C 484.263,327.169 409.097,327.335 334,328.5C 333.342,330.108 333.842,331.275 335.5,332C 416.256,332.387 496.922,332.721 577.5,333C 578.025,333.692 578.692,334.192 579.5,334.5C 580.866,330.765 583.366,328.099 587,326.5C 587.462,322.213 589.629,319.213 593.5,317.5C 592.183,317.687 590.85,317.02 589.5,315.5C 589.846,314.304 590.346,314.304 591,315.5C 591.464,314.906 591.631,314.239 591.5,313.5C 596.719,316.046 601.052,319.713 604.5,324.5C 604.5,330.167 604.5,335.833 604.5,341.5C 517.998,341.167 431.665,341.501 345.5,342.5C 336.029,360.105 326.529,377.772 317,395.5C 315,398.666 312.5,401.332 309.5,403.5C 306.482,403.665 303.482,403.498 300.5,403C 298.84,401.512 297.84,399.679 297.5,397.5C 298.166,394.972 298.832,392.306 299.5,389.5C 300.105,392.304 300.938,394.971 302,397.5C 302.624,392.777 302.29,388.11 301,383.5C 299.755,387.498 298.922,387.331 298.5,383C 298.726,379.988 299.559,377.155 301,374.5C 301.499,370.179 301.666,365.846 301.5,361.5C 302.5,361.5 303.5,361.5 304.5,361.5C 304.238,360.022 304.571,358.689 305.5,357.5C 305.833,358.333 306.167,359.167 306.5,360C 305.068,362.383 304.235,364.883 304,367.5C 304.934,364.334 306.767,363.334 309.5,364.5C 309.263,365.791 309.596,366.791 310.5,367.5C 317.412,355.319 324.245,342.986 331,330.5C 331.876,328.365 333.376,327.031 335.5,326.5C 416.5,326.5 497.5,326.5 578.5,326.5C 578.33,325.178 578.663,324.011 579.5,323C 578.207,322.51 576.873,322.343 575.5,322.5C 575.167,322.5 574.833,322.5 574.5,322.5C 545.73,298.948 516.396,276.114 486.5,254C 474.69,244.357 463.69,233.857 453.5,222.5C 433.415,201.999 420.415,177.666 414.5,149.5C 412.848,135.895 412.181,122.229 412.5,108.5C 414.042,92.077 419.542,77.077 429,63.5C 450.921,33.9525 480.088,16.2858 516.5,10.5C 536.605,8.6969 556.605,9.36357 576.5,12.5 Z"/></g>
<g><path style="opacity:1" fill="#bc2c2f" d="M 412.5,108.5 C 412.181,122.229 412.848,135.895 414.5,149.5C 412.883,145.46 412.05,141.127 412,136.5C 411.176,126.991 411.342,117.657 412.5,108.5 Z"/></g>
<g><path style="opacity:1" fill="#ca2929" d="M 287.5,111.5 C 289.13,123.637 290.13,135.97 290.5,148.5C 289.883,148.389 289.383,148.056 289,147.5C 288.667,150.167 288.333,152.833 288,155.5C 287.833,153.833 287.667,152.167 287.5,150.5C 288.427,137.509 288.427,124.509 287.5,111.5 Z"/></g>
<g><path style="opacity:1" fill="#d37474" d="M 891.5,140.5 C 891.435,143.428 890.768,146.095 889.5,148.5C 889.294,145.505 889.96,142.838 891.5,140.5 Z"/></g>
<g><path style="opacity:1" fill="#cc282c" d="M 1004.5,148.5 C 1005.19,163.167 1003.86,177.5 1000.5,191.5C 1001.22,176.967 1002.55,162.633 1004.5,148.5 Z"/></g>
<g><path style="opacity:1" fill="#c32727" d="M 290.5,148.5 C 292.446,162.633 293.779,176.967 294.5,191.5C 293.144,183.986 291.977,176.32 291,168.5C 290.5,161.842 290.334,155.175 290.5,148.5 Z"/></g>
<g><path style="opacity:1" fill="#bc3432" d="M 1045.5,170.5 C 1047.13,184.307 1048.13,198.307 1048.5,212.5C 1046.45,198.725 1045.45,184.725 1045.5,170.5 Z"/></g>
<g><path style="opacity:1" fill="#c73533" d="M 251.5,144.5 C 251.753,167.569 250.086,190.236 246.5,212.5C 247.548,189.64 249.215,166.973 251.5,144.5 Z"/></g>
<g><path style="opacity:1" fill="#c92728" d="M 294.5,191.5 C 297.422,213.272 299.422,235.272 300.5,257.5C 299.197,251.022 298.197,244.355 297.5,237.5C 296.749,238.376 296.249,239.376 296,240.5C 295.617,239.944 295.117,239.611 294.5,239.5C 295.993,235.685 296.66,231.685 296.5,227.5C 295.391,215.522 294.724,203.522 294.5,191.5 Z"/></g>
<g><path style="opacity:1" fill="#be2d2d" d="M 1048.5,212.5 C 1050.11,220.61 1050.78,228.944 1050.5,237.5C 1048.77,229.401 1048.1,221.068 1048.5,212.5 Z"/></g>
<g><path style="opacity:1" fill="#c73132" d="M 172.5,246.5 C 171.22,242.732 169.886,238.898 168.5,235C 163.617,233.743 159.284,234.576 155.5,237.5C 155.859,235.629 156.859,234.129 158.5,233C 169.371,230.853 174.038,235.353 172.5,246.5 Z"/></g>
<g><path style="opacity:1" fill="#cb282a" d="M 996.5,236.5 C 997.249,250.524 995.916,264.191 992.5,277.5C 993.309,263.639 994.642,249.972 996.5,236.5 Z"/></g>
<g><path style="opacity:1" fill="#ec1d25" d="M 1151.5,282.5 C 1151.5,286.874 1152.5,290.874 1154.5,294.5C 1157.11,302.33 1159.11,310.33 1160.5,318.5C 1160.34,320.857 1160.5,323.19 1161,325.5C 1162.7,326.406 1164.53,326.739 1166.5,326.5C 1201.51,328.182 1236.84,329.182 1272.5,329.5C 1274.78,328.777 1277.12,328.443 1279.5,328.5C 1279.5,332.833 1279.5,337.167 1279.5,341.5C 1236.14,341.812 1192.81,341.479 1149.5,340.5C 1147.4,336.798 1145.9,332.798 1145,328.5C 1141.6,314.8 1138.1,301.133 1134.5,287.5C 1132.18,298.125 1130.18,308.792 1128.5,319.5C 1127.21,320.871 1126.55,322.705 1126.5,325C 1125.38,331.456 1124.71,337.956 1124.5,344.5C 1122.59,344.426 1121.42,343.426 1121,341.5C 1120.83,342 1120.67,342.5 1120.5,343C 1122.64,346.956 1122.98,351.122 1121.5,355.5C 1120,347.581 1119.17,339.581 1119,331.5C 1118.67,335.833 1118.33,340.167 1118,344.5C 1116.98,343.366 1116.32,343.699 1116,345.5C 1115.67,344.5 1115.33,343.5 1115,342.5C 1114.67,342.833 1114.33,343.167 1114,343.5C 1113.5,340.854 1113.34,338.187 1113.5,335.5C 1112.5,335.5 1111.5,335.5 1110.5,335.5C 1110.5,332.5 1110.5,329.5 1110.5,326.5C 1112.1,322.1 1112.77,317.434 1112.5,312.5C 1112.28,307.9 1112.95,303.567 1114.5,299.5C 1115.68,295.673 1116.68,291.673 1117.5,287.5C 1118.28,288.729 1118.78,290.062 1119,291.5C 1118.29,282.509 1118.45,273.509 1119.5,264.5C 1119.5,263.5 1119.5,262.5 1119.5,261.5C 1120.12,261.389 1120.62,261.056 1121,260.5C 1121.5,257.183 1121.67,253.85 1121.5,250.5C 1121.58,244.643 1122.91,239.143 1125.5,234C 1130.44,231.585 1134.94,232.085 1139,235.5C 1143.88,250.981 1148.05,266.647 1151.5,282.5 Z"/></g>
<g><path style="opacity:1" fill="#d04f49" d="M 1121.5,250.5 C 1121.67,253.85 1121.5,257.183 1121,260.5C 1120.62,261.056 1120.12,261.389 1119.5,261.5C 1119.43,257.575 1120.1,253.909 1121.5,250.5 Z"/></g>
<g><path style="opacity:1" fill="#e42127" d="M 300.5,257.5 C 303.47,279.698 305.47,302.031 306.5,324.5C 305.778,324.082 305.278,323.416 305,322.5C 304.831,316.141 304.331,309.807 303.5,303.5C 302.534,305.396 302.201,307.396 302.5,309.5C 301.5,309.5 300.5,309.5 299.5,309.5C 300.127,306.266 300.127,303.099 299.5,300C 302.167,295.333 302.167,290.667 299.5,286C 300.612,279.205 300.778,272.371 300,265.5C 299.667,265.167 299.333,264.833 299,264.5C 298.593,267.682 298.093,270.849 297.5,274C 298.559,276.782 297.892,279.282 295.5,281.5C 294.914,281.291 294.414,280.957 294,280.5C 292.465,285.929 291.465,291.263 291,296.5C 290.586,296.043 290.086,295.709 289.5,295.5C 289.167,297 288.833,298.5 288.5,300C 289.866,307.472 290.699,315.306 291,323.5C 292.925,317.152 292.759,310.819 290.5,304.5C 291.325,303.614 292.325,303.281 293.5,303.5C 294.114,307.756 295.114,311.923 296.5,316C 295.195,319.395 294.529,322.895 294.5,326.5C 293.5,326.5 292.5,326.5 291.5,326.5C 291.957,334.844 292.624,343.177 293.5,351.5C 294.328,347.204 294.828,342.871 295,338.5C 295.822,340.788 296.489,343.122 297,345.5C 297.879,342.182 298.713,338.848 299.5,335.5C 299.833,336.667 300.167,337.833 300.5,339C 299.594,345.495 299.427,351.995 300,358.5C 298.924,361.36 298.091,364.36 297.5,367.5C 295.437,355.754 294.437,355.754 294.5,367.5C 293.833,365.167 293.167,362.833 292.5,360.5C 289.793,336.233 287.793,311.899 286.5,287.5C 286.698,282.25 286.031,277.25 284.5,272.5C 284.5,270.167 284.5,267.833 284.5,265.5C 285.117,265.611 285.617,265.944 286,266.5C 286.333,260.833 286.667,255.167 287,249.5C 286.958,253.369 288.124,256.703 290.5,259.5C 288.969,260.613 287.969,262.113 287.5,264C 287.667,264.833 287.833,265.667 288,266.5C 290.2,265.01 292.034,265.343 293.5,267.5C 293.081,268.672 292.415,269.672 291.5,270.5C 290.391,269.41 289.391,269.41 288.5,270.5C 289.279,275.113 289.779,279.78 290,284.5C 294.728,276.237 295.895,267.571 293.5,258.5C 294.373,252.198 294.706,245.865 294.5,239.5C 295.117,239.611 295.617,239.944 296,240.5C 296.249,239.376 296.749,238.376 297.5,237.5C 298.197,244.355 299.197,251.022 300.5,257.5 Z"/></g>
<g><path style="opacity:1" fill="#cc2d2c" d="M 1119.5,264.5 C 1118.45,273.509 1118.29,282.509 1119,291.5C 1118.78,290.062 1118.28,288.729 1117.5,287.5C 1116.68,291.673 1115.68,295.673 1114.5,299.5C 1115.52,287.617 1117.19,275.95 1119.5,264.5 Z"/></g>
<g><path style="opacity:1" fill="#b64042" d="M 284.5,272.5 C 286.031,277.25 286.698,282.25 286.5,287.5C 285.111,282.731 284.444,277.731 284.5,272.5 Z"/></g>
<g><path style="opacity:1" fill="#b73f41" d="M 258.5,280.5 C 258.404,286.373 257.737,292.04 256.5,297.5C 256.321,291.596 256.988,285.929 258.5,280.5 Z"/></g>
<g><path style="opacity:1" fill="#b84241" d="M 143.5,282.5 C 143.498,286.874 142.498,290.874 140.5,294.5C 140.755,290.2 141.755,286.2 143.5,282.5 Z"/></g>
<g><path style="opacity:1" fill="#b84140" d="M 1151.5,282.5 C 1153.25,286.2 1154.25,290.2 1154.5,294.5C 1152.5,290.874 1151.5,286.874 1151.5,282.5 Z"/></g>
<g><path style="opacity:1" fill="#fefefe" d="M 1149.5,340.5 C 1149.92,341.222 1150.58,341.722 1151.5,342C 1194.17,342.5 1236.83,342.667 1279.5,342.5C 1279.5,441.5 1279.5,540.5 1279.5,639.5C 1211.83,639.5 1144.17,639.5 1076.5,639.5C 1079.2,637.954 1081.03,635.621 1082,632.5C 1089.21,583.807 1096.37,535.141 1103.5,486.5C 1105.37,484.365 1106.04,481.698 1105.5,478.5C 1106.43,469.479 1107.43,460.479 1108.5,451.5C 1112.59,429.041 1116.26,406.374 1119.5,383.5C 1119.5,381.167 1119.5,378.833 1119.5,376.5C 1121.77,366.052 1123.43,355.386 1124.5,344.5C 1126.41,336.386 1127.74,328.053 1128.5,319.5C 1130.18,308.792 1132.18,298.125 1134.5,287.5C 1138.1,301.133 1141.6,314.8 1145,328.5C 1145.9,332.798 1147.4,336.798 1149.5,340.5 Z"/></g>
<g><path style="opacity:1" fill="#ef1b24" d="M 306.5,324.5 C 306.523,337.918 307.523,351.251 309.5,364.5C 306.767,363.334 304.934,364.334 304,367.5C 304.235,364.883 305.068,362.383 306.5,360C 306.167,359.167 305.833,358.333 305.5,357.5C 304.571,358.689 304.238,360.022 304.5,361.5C 303.5,361.5 302.5,361.5 301.5,361.5C 301.666,365.846 301.499,370.179 301,374.5C 299.559,377.155 298.726,379.988 298.5,383C 298.922,387.331 299.755,387.498 301,383.5C 302.29,388.11 302.624,392.777 302,397.5C 300.938,394.971 300.105,392.304 299.5,389.5C 298.832,392.306 298.166,394.972 297.5,397.5C 296.803,390.034 295.803,382.701 294.5,375.5C 294.5,372.833 294.5,370.167 294.5,367.5C 294.437,355.754 295.437,355.754 297.5,367.5C 298.091,364.36 298.924,361.36 300,358.5C 299.427,351.995 299.594,345.495 300.5,339C 300.167,337.833 299.833,336.667 299.5,335.5C 298.713,338.848 297.879,342.182 297,345.5C 296.489,343.122 295.822,340.788 295,338.5C 294.828,342.871 294.328,347.204 293.5,351.5C 292.624,343.177 291.957,334.844 291.5,326.5C 292.5,326.5 293.5,326.5 294.5,326.5C 294.529,322.895 295.195,319.395 296.5,316C 295.114,311.923 294.114,307.756 293.5,303.5C 292.325,303.281 291.325,303.614 290.5,304.5C 292.759,310.819 292.925,317.152 291,323.5C 290.699,315.306 289.866,307.472 288.5,300C 288.833,298.5 289.167,297 289.5,295.5C 290.086,295.709 290.586,296.043 291,296.5C 291.465,291.263 292.465,285.929 294,280.5C 294.414,280.957 294.914,281.291 295.5,281.5C 297.892,279.282 298.559,276.782 297.5,274C 298.093,270.849 298.593,267.682 299,264.5C 299.333,264.833 299.667,265.167 300,265.5C 300.778,272.371 300.612,279.205 299.5,286C 302.167,290.667 302.167,295.333 299.5,300C 300.127,303.099 300.127,306.266 299.5,309.5C 300.5,309.5 301.5,309.5 302.5,309.5C 302.201,307.396 302.534,305.396 303.5,303.5C 304.331,309.807 304.831,316.141 305,322.5C 305.278,323.416 305.778,324.082 306.5,324.5 Z"/></g>
<g><path style="opacity:1" fill="#b4302e" d="M 990.5,302.5 C 990.867,309.415 990.201,316.081 988.5,322.5C 988.207,315.595 988.874,308.928 990.5,302.5 Z"/></g>
<g><path style="opacity:1" fill="#f1fefe" d="M 574.5,322.5 C 574.833,322.5 575.167,322.5 575.5,322.5C 575.5,322.833 575.5,323.167 575.5,323.5C 495.668,324.499 415.668,324.833 335.5,324.5C 373.828,323.167 412.494,322.5 451.5,322.5C 492.595,322.854 533.595,322.854 574.5,322.5 Z"/></g>
<g><path style="opacity:1" fill="#fefefe" d="M 166.5,319.5 C 167.259,328.053 168.592,336.386 170.5,344.5C 172.55,362.72 175.217,380.72 178.5,398.5C 179.187,407.4 180.52,416.066 182.5,424.5C 187.051,460.077 192.385,495.41 198.5,530.5C 199.532,544.12 201.532,557.453 204.5,570.5C 206.931,591.208 209.764,611.874 213,632.5C 213.967,635.621 215.8,637.954 218.5,639.5C 145.5,639.5 72.5,639.5 -0.5,639.5C -0.5,540.5 -0.5,441.5 -0.5,342.5C 47.5012,342.667 95.5012,342.5 143.5,342C 145.81,340.363 147.31,338.196 148,335.5C 152.361,319.521 156.527,303.521 160.5,287.5C 162.824,298.125 164.824,308.792 166.5,319.5 Z"/></g>
<g><path style="opacity:1" fill="#feeaee" d="M 575.5,323.5 C 576.376,323.369 577.043,323.702 577.5,324.5C 496.836,325.5 416.169,325.833 335.5,325.5C 335.5,325.167 335.5,324.833 335.5,324.5C 415.668,324.833 495.668,324.499 575.5,323.5 Z"/></g>
<g><path style="opacity:1" fill="#be302b" d="M 1112.5,312.5 C 1112.77,317.434 1112.1,322.1 1110.5,326.5C 1110.23,321.566 1110.9,316.9 1112.5,312.5 Z"/></g>
<g><path style="opacity:1" fill="#c13231" d="M 1128.5,319.5 C 1127.74,328.053 1126.41,336.386 1124.5,344.5C 1124.71,337.956 1125.38,331.456 1126.5,325C 1126.55,322.705 1127.21,320.871 1128.5,319.5 Z"/></g>
<g><path style="opacity:1" fill="#b3262d" d="M 575.5,323.5 C 575.5,323.167 575.5,322.833 575.5,322.5C 576.873,322.343 578.207,322.51 579.5,323C 578.663,324.011 578.33,325.178 578.5,326.5C 497.5,326.5 416.5,326.5 335.5,326.5C 335.5,326.167 335.5,325.833 335.5,325.5C 416.169,325.833 496.836,325.5 577.5,324.5C 577.043,323.702 576.376,323.369 575.5,323.5 Z"/></g>
<g><path style="opacity:1" fill="#cc3731" d="M 1160.5,318.5 C 1161.92,320.515 1162.59,322.848 1162.5,325.5C 1201.47,324.518 1240.47,324.184 1279.5,324.5C 1279.5,324.833 1279.5,325.167 1279.5,325.5C 1241.84,326.398 1204.18,326.731 1166.5,326.5C 1164.53,326.739 1162.7,326.406 1161,325.5C 1160.5,323.19 1160.34,320.857 1160.5,318.5 Z"/></g>
<g><path style="opacity:1" fill="#ed1a22" d="M -0.5,324.5 C 9.83333,324.5 20.1667,324.5 30.5,324.5C 62.8231,326.163 95.4897,327.163 128.5,327.5C 85.5018,328.369 42.5018,329.035 -0.5,329.5C -0.5,327.833 -0.5,326.167 -0.5,324.5 Z"/></g>
<g><path style="opacity:1" fill="#c33330" d="M 166.5,319.5 C 167.787,320.871 168.453,322.705 168.5,325C 169.625,331.456 170.291,337.956 170.5,344.5C 168.592,336.386 167.259,328.053 166.5,319.5 Z"/></g>
<g><path style="opacity:1" fill="#f41a22" d="M 1279.5,325.5 C 1279.5,326.5 1279.5,327.5 1279.5,328.5C 1277.12,328.443 1274.78,328.777 1272.5,329.5C 1236.84,329.182 1201.51,328.182 1166.5,326.5C 1204.18,326.731 1241.84,326.398 1279.5,325.5 Z"/></g>
<g><path style="opacity:1" fill="#f11a25" d="M 587.5,309.5 C 589.341,310.402 590.674,311.736 591.5,313.5C 591.631,314.239 591.464,314.906 591,315.5C 590.346,314.304 589.846,314.304 589.5,315.5C 590.85,317.02 592.183,317.687 593.5,317.5C 589.629,319.213 587.462,322.213 587,326.5C 583.366,328.099 580.866,330.765 579.5,334.5C 578.692,334.192 578.025,333.692 577.5,333C 496.922,332.721 416.256,332.387 335.5,332C 333.842,331.275 333.342,330.108 334,328.5C 409.097,327.335 484.263,327.169 559.5,328C 484.831,328.167 410.164,328.667 335.5,329.5C 414.882,330.476 494.216,330.809 573.5,330.5C 577.268,329.449 580.935,328.116 584.5,326.5C 584.318,324.409 584.652,322.409 585.5,320.5C 583.002,321.121 580.668,320.455 578.5,318.5C 579.689,317.571 581.022,317.238 582.5,317.5C 582.5,316.167 582.5,314.833 582.5,313.5C 576.411,313.471 576.411,312.137 582.5,309.5C 582.023,308.522 581.357,307.689 580.5,307C 582.989,307.237 585.322,308.071 587.5,309.5 Z"/></g>
<g><path style="opacity:1" fill="#cf2529" d="M 1055.5,306.5 C 1057.9,317.566 1058.9,328.9 1058.5,340.5C 1056.52,340.516 1055.52,339.516 1055.5,337.5C 1056.6,327.181 1056.6,316.848 1055.5,306.5 Z"/></g>
<g><path style="opacity:1" fill="#ab1419" d="M 604.5,324.5 C 605.49,330.31 605.823,336.31 605.5,342.5C 518.833,342.5 432.167,342.5 345.5,342.5C 431.665,341.501 517.998,341.167 604.5,341.5C 604.5,335.833 604.5,330.167 604.5,324.5 Z"/></g>
<g><path style="opacity:1" fill="#ac1419" d="M 701.5,320.5 C 700.542,321.962 699.376,323.295 698,324.5C 697.501,330.157 697.334,335.824 697.5,341.5C 782.169,341.167 866.836,341.5 951.5,342.5C 952.246,343.736 952.579,345.07 952.5,346.5C 951.609,345.739 950.942,344.739 950.5,343.5C 865.836,342.5 781.169,342.167 696.5,342.5C 696.334,336.158 696.5,329.825 697,323.5C 698.129,321.859 699.629,320.859 701.5,320.5 Z"/></g>
<g><path style="opacity:1" fill="#b12826" d="M 1149.5,340.5 C 1192.81,341.479 1236.14,341.812 1279.5,341.5C 1279.5,341.833 1279.5,342.167 1279.5,342.5C 1236.83,342.667 1194.17,342.5 1151.5,342C 1150.58,341.722 1149.92,341.222 1149.5,340.5 Z"/></g>
<g><path style="opacity:1" fill="#c42a2a" d="M 306.5,324.5 C 308.446,338.633 309.779,352.967 310.5,367.5C 309.596,366.791 309.263,365.791 309.5,364.5C 307.523,351.251 306.523,337.918 306.5,324.5 Z"/></g>
<g><path style="opacity:1" fill="#ef1b23" d="M 1119.5,376.5 C 1119.5,378.833 1119.5,381.167 1119.5,383.5C 1117.44,383.238 1116.1,382.071 1115.5,380C 1114.67,379.312 1114,379.479 1113.5,380.5C 1112.77,385.229 1112.44,390.229 1112.5,395.5C 1113.5,395.5 1114.5,395.5 1115.5,395.5C 1115.19,400.667 1114.36,405.667 1113,410.5C 1112.44,401.672 1111.11,401.339 1109,409.5C 1108.69,406.628 1108.19,403.795 1107.5,401C 1109.19,398.065 1109.86,394.898 1109.5,391.5C 1106.31,391.824 1105.31,390.658 1106.5,388C 1104.59,386.007 1103.43,386.507 1103,389.5C 1102.11,384.623 1102.27,382.956 1103.5,384.5C 1104.5,384.5 1105.5,384.5 1106.5,384.5C 1104.68,379.751 1105.35,375.418 1108.5,371.5C 1111.07,370.721 1113.07,369.221 1114.5,367C 1114.25,365.187 1113.92,363.353 1113.5,361.5C 1112.53,363.396 1112.2,365.396 1112.5,367.5C 1110.5,367.5 1108.5,367.5 1106.5,367.5C 1106.18,363.774 1106.51,360.107 1107.5,356.5C 1110.2,356.024 1110.7,355.024 1109,353.5C 1108.19,348.743 1108.52,344.076 1110,339.5C 1110.17,343.541 1110.67,347.541 1111.5,351.5C 1112.17,349.833 1112.83,348.167 1113.5,346.5C 1114.88,347 1115.55,348 1115.5,349.5C 1113.53,352.697 1113.2,356.03 1114.5,359.5C 1116.27,357.047 1117.77,354.381 1119,351.5C 1120.18,357.801 1120.51,364.135 1120,370.5C 1119.11,369.112 1118.61,369.278 1118.5,371C 1119.23,372.766 1119.57,374.599 1119.5,376.5 Z"/></g>
<g><path style="opacity:1" fill="#eb1e25" d="M 1030.5,10.5 C 1031.65,15.2467 1032.32,20.0801 1032.5,25C 1031.17,32.9272 1030.17,40.9272 1029.5,49C 1029.61,50.2798 1030.28,51.1131 1031.5,51.5C 1032.33,46.1975 1032.83,40.8642 1033,35.5C 1034.14,39.6576 1034.64,43.9909 1034.5,48.5C 1034.33,52.5 1034.17,56.5 1034,60.5C 1032.58,62.4111 1031.75,64.5777 1031.5,67C 1032,71.1921 1032.67,75.3587 1033.5,79.5C 1034.08,76.0245 1034.91,72.6912 1036,69.5C 1036.74,75.158 1037.41,80.8247 1038,86.5C 1038.38,87.056 1038.88,87.3893 1039.5,87.5C 1041.58,115.158 1043.58,142.825 1045.5,170.5C 1045.45,184.725 1046.45,198.725 1048.5,212.5C 1048.1,221.068 1048.77,229.401 1050.5,237.5C 1053.41,260.355 1055.07,283.355 1055.5,306.5C 1056.6,316.848 1056.6,327.181 1055.5,337.5C 1055.52,339.516 1056.52,340.516 1058.5,340.5C 1062.8,382.275 1066.14,424.275 1068.5,466.5C 1068.39,475.533 1068.89,484.533 1070,493.5C 1070.28,494.416 1070.78,495.082 1071.5,495.5C 1071.5,497.167 1071.5,498.833 1071.5,500.5C 1072.66,511.801 1073.5,523.135 1074,534.5C 1074.15,538.991 1074.98,543.324 1076.5,547.5C 1078.16,537.535 1079.5,527.535 1080.5,517.5C 1081.17,515.5 1081.83,513.5 1082.5,511.5C 1083.82,507.71 1084.82,503.71 1085.5,499.5C 1086.32,502.107 1086.82,504.774 1087,507.5C 1087.28,501.151 1087.28,494.818 1087,488.5C 1087.33,489.167 1087.67,489.833 1088,490.5C 1090.94,486.285 1092.11,481.618 1091.5,476.5C 1090.17,476.5 1088.83,476.5 1087.5,476.5C 1087.5,475.833 1087.5,475.167 1087.5,474.5C 1088.12,474.389 1088.62,474.056 1089,473.5C 1089.5,470.183 1089.67,466.85 1089.5,463.5C 1089.22,461.585 1089.55,459.919 1090.5,458.5C 1092.08,455.124 1092.75,451.458 1092.5,447.5C 1093.5,447.5 1094.5,447.5 1095.5,447.5C 1094.39,443.493 1094.39,439.493 1095.5,435.5C 1097.71,441.63 1098.88,447.963 1099,454.5C 1100.53,450.289 1100.87,445.956 1100,441.5C 1098.52,436.261 1097.36,430.927 1096.5,425.5C 1097.33,419.506 1098.16,413.506 1099,407.5C 1099.67,406.167 1100.33,406.167 1101,407.5C 1101.33,410.167 1101.67,412.833 1102,415.5C 1102.7,410.305 1102.2,405.305 1100.5,400.5C 1100.67,398.833 1100.83,397.167 1101,395.5C 1102.22,397.962 1102.88,400.629 1103,403.5C 1103.5,400.518 1103.66,397.518 1103.5,394.5C 1104.82,394.67 1105.99,394.337 1107,393.5C 1107.19,395.061 1106.35,395.728 1104.5,395.5C 1106.57,407.215 1108.57,419.215 1110.5,431.5C 1110.17,433.5 1109.83,435.5 1109.5,437.5C 1108.83,433.833 1108.17,430.167 1107.5,426.5C 1107.17,428.5 1106.83,430.5 1106.5,432.5C 1107.87,438.767 1108.54,445.1 1108.5,451.5C 1107.43,460.479 1106.43,469.479 1105.5,478.5C 1104.88,478.611 1104.38,478.944 1104,479.5C 1103.5,481.81 1103.34,484.143 1103.5,486.5C 1096.37,535.141 1089.21,583.807 1082,632.5C 1081.03,635.621 1079.2,637.954 1076.5,639.5C 1074.17,639.5 1071.83,639.5 1069.5,639.5C 1067.9,638.404 1066.4,637.07 1065,635.5C 1060.47,590.584 1056.97,545.584 1054.5,500.5C 1054.33,493.492 1054.5,486.492 1055,479.5C 1055.33,482.167 1055.67,484.833 1056,487.5C 1056.22,484.574 1056.72,481.74 1057.5,479C 1057.21,475.906 1055.54,474.406 1052.5,474.5C 1052.33,466.826 1052.5,459.159 1053,451.5C 1054.28,446.679 1054.95,441.679 1055,436.5C 1055.95,440.168 1056.78,443.835 1057.5,447.5C 1058.5,447.5 1059.5,447.5 1060.5,447.5C 1059.1,436.988 1058.1,426.321 1057.5,415.5C 1056.51,420.792 1056.17,426.125 1056.5,431.5C 1055.5,431.5 1054.5,431.5 1053.5,431.5C 1053.11,423.482 1052.44,415.482 1051.5,407.5C 1050.83,412.167 1050.17,416.833 1049.5,421.5C 1047.99,413.235 1048.33,405.068 1050.5,397C 1049.56,395.914 1048.56,394.414 1047.5,392.5C 1046.24,385.493 1046.24,378.493 1047.5,371.5C 1047.33,370.833 1047.17,370.167 1047,369.5C 1046.75,370.624 1046.25,371.624 1045.5,372.5C 1045.13,366.771 1044.13,361.437 1042.5,356.5C 1041.19,342.524 1040.19,328.524 1039.5,314.5C 1039.47,308.811 1039.13,303.145 1038.5,297.5C 1037.92,286.166 1037.25,274.833 1036.5,263.5C 1036.48,260.41 1035.81,257.743 1034.5,255.5C 1031.52,218.524 1028.85,181.524 1026.5,144.5C 1026.55,138.611 1025.88,132.944 1024.5,127.5C 1023.65,129.111 1022.99,131.444 1022.5,134.5C 1021.18,137.428 1020.51,140.761 1020.5,144.5C 1019.92,153.159 1019.58,161.826 1019.5,170.5C 1019.17,175.167 1018.83,179.833 1018.5,184.5C 1017.11,189.269 1016.44,194.269 1016.5,199.5C 1014.36,213.952 1013.03,228.618 1012.5,243.5C 1012.5,245.833 1012.5,248.167 1012.5,250.5C 1010.86,255.234 1010.19,260.234 1010.5,265.5C 1009.17,282.494 1007.83,299.494 1006.5,316.5C 1004.97,321.25 1004.3,326.25 1004.5,331.5C 1004.54,341.222 1003.87,350.888 1002.5,360.5C 1001.11,365.269 1000.44,370.269 1000.5,375.5C 999.087,382.285 998.254,389.285 998,396.5C 996.587,398.652 995.754,400.986 995.5,403.5C 992.36,404.641 989.027,404.808 985.5,404C 983.333,401.833 981.167,399.667 979,397.5C 969.941,380.61 961.108,363.61 952.5,346.5C 952.579,345.07 952.246,343.736 951.5,342.5C 866.836,341.5 782.169,341.167 697.5,341.5C 697.334,335.824 697.501,330.157 698,324.5C 699.376,323.295 700.542,321.962 701.5,320.5C 705.745,316.039 710.412,312.039 715.5,308.5C 717.315,307.37 719.315,306.704 721.5,306.5C 721.697,310.818 721.697,314.985 721.5,319C 723.744,319.05 725.411,319.883 726.5,321.5C 726.5,321.833 726.5,322.167 726.5,322.5C 725.833,322.5 725.5,322.833 725.5,323.5C 724.624,323.369 723.957,323.702 723.5,324.5C 802.164,325.5 880.831,325.833 959.5,325.5C 962.49,328.342 964.99,331.676 967,335.5C 972.381,346.536 978.214,357.203 984.5,367.5C 986.921,353.401 988.254,339.068 988.5,324.5C 988.5,323.833 988.5,323.167 988.5,322.5C 990.201,316.081 990.867,309.415 990.5,302.5C 990.283,294.082 990.95,285.749 992.5,277.5C 995.916,264.191 997.249,250.524 996.5,236.5C 997.221,221.304 998.554,206.304 1000.5,191.5C 1003.86,177.5 1005.19,163.167 1004.5,148.5C 1005.62,125.413 1007.62,102.413 1010.5,79.5C 1012.18,74.4317 1012.84,69.0984 1012.5,63.5C 1013.5,63.5 1014.5,63.5 1015.5,63.5C 1014.64,57.1836 1014.48,50.8503 1015,44.5C 1015.33,44.1667 1015.67,43.8333 1016,43.5C 1016.22,44.938 1016.72,46.2713 1017.5,47.5C 1018.64,45.5787 1018.81,43.5787 1018,41.5C 1017.67,41.8333 1017.33,42.1667 1017,42.5C 1015.99,40.4664 1015.49,38.2998 1015.5,36C 1016.31,29.1898 1016.64,22.3565 1016.5,15.5C 1016.35,14.448 1016.52,13.448 1017,12.5C 1020.26,8.67194 1024.43,7.50528 1029.5,9C 1030.06,9.38258 1030.39,9.88258 1030.5,10.5 Z"/></g>
<g><path style="opacity:1" fill="#c5292b" d="M 988.5,324.5 C 988.254,339.068 986.921,353.401 984.5,367.5C 985.221,352.967 986.554,338.633 988.5,324.5 Z"/></g>
<g><path style="opacity:1" fill="#ba3e3e" d="M 1006.5,316.5 C 1006.56,321.731 1005.89,326.731 1004.5,331.5C 1004.3,326.25 1004.97,321.25 1006.5,316.5 Z"/></g>
<g><path style="opacity:1" fill="#feeaee" d="M 725.5,323.5 C 803.332,324.499 881.332,324.833 959.5,324.5C 959.5,324.833 959.5,325.167 959.5,325.5C 880.831,325.833 802.164,325.5 723.5,324.5C 723.957,323.702 724.624,323.369 725.5,323.5 Z"/></g>
<g><path style="opacity:1" fill="#f1fefe" d="M 726.5,322.5 C 804.507,321.836 882.174,322.503 959.5,324.5C 881.332,324.833 803.332,324.499 725.5,323.5C 725.5,322.833 725.833,322.5 726.5,322.5 Z"/></g>
<g><path style="opacity:1" fill="#c47e84" d="M 1037.5,297.5 C 1037.83,297.5 1038.17,297.5 1038.5,297.5C 1039.13,303.145 1039.47,308.811 1039.5,314.5C 1038.26,309.04 1037.6,303.373 1037.5,297.5 Z"/></g>
<g><path style="opacity:1" fill="#b83c3c" d="M 1034.5,255.5 C 1035.81,257.743 1036.48,260.41 1036.5,263.5C 1037.25,274.833 1037.92,286.166 1038.5,297.5C 1038.17,297.5 1037.83,297.5 1037.5,297.5C 1036.83,283.474 1035.83,269.474 1034.5,255.5 Z"/></g>
<g><path style="opacity:1" fill="#bb3c3d" d="M 1012.5,250.5 C 1012.56,255.731 1011.89,260.731 1010.5,265.5C 1010.19,260.234 1010.86,255.234 1012.5,250.5 Z"/></g>
<g><path style="opacity:1" fill="#bd3434" d="M 1016.5,199.5 C 1015.82,214.369 1014.49,229.036 1012.5,243.5C 1013.03,228.618 1014.36,213.952 1016.5,199.5 Z"/></g>
<g><path style="opacity:1" fill="#bc3f45" d="M 1018.5,184.5 C 1018.56,189.731 1017.89,194.731 1016.5,199.5C 1016.44,194.269 1017.11,189.269 1018.5,184.5 Z"/></g>
<g><path style="opacity:1" fill="#bf3531" d="M 1022.5,134.5 C 1022.04,146.69 1021.04,158.69 1019.5,170.5C 1019.58,161.826 1019.92,153.159 1020.5,144.5C 1020.51,140.761 1021.18,137.428 1022.5,134.5 Z"/></g>
<g><path style="opacity:1" fill="#c34041" d="M 1024.5,127.5 C 1025.88,132.944 1026.55,138.611 1026.5,144.5C 1025.12,139.056 1024.45,133.389 1024.5,127.5 Z"/></g>
<g><path style="opacity:1" fill="#be4046" d="M 292.5,360.5 C 293.167,362.833 293.833,365.167 294.5,367.5C 294.5,370.167 294.5,372.833 294.5,375.5C 293.111,370.731 292.444,365.731 292.5,360.5 Z"/></g>
<g><path style="opacity:1" fill="#be4045" d="M 1002.5,360.5 C 1002.56,365.731 1001.89,370.731 1000.5,375.5C 1000.44,370.269 1001.11,365.269 1002.5,360.5 Z"/></g>
<g><path style="opacity:1" fill="#eb1f25" d="M 276.5,11.5 C 278.104,12.287 278.771,13.6203 278.5,15.5C 278.644,22.3565 278.311,29.1898 277.5,36C 277.334,39.1649 278.167,41.9983 280,44.5C 280.594,50.8556 280.427,57.1889 279.5,63.5C 280.5,63.5 281.5,63.5 282.5,63.5C 282.276,69.7386 282.943,75.7386 284.5,81.5C 286.116,91.3889 287.116,101.389 287.5,111.5C 288.427,124.509 288.427,137.509 287.5,150.5C 287.667,152.167 287.833,153.833 288,155.5C 288.333,152.833 288.667,150.167 289,147.5C 289.383,148.056 289.883,148.389 290.5,148.5C 290.334,155.175 290.5,161.842 291,168.5C 291.977,176.32 293.144,183.986 294.5,191.5C 294.724,203.522 295.391,215.522 296.5,227.5C 296.66,231.685 295.993,235.685 294.5,239.5C 294.706,245.865 294.373,252.198 293.5,258.5C 295.895,267.571 294.728,276.237 290,284.5C 289.779,279.78 289.279,275.113 288.5,270.5C 289.391,269.41 290.391,269.41 291.5,270.5C 292.415,269.672 293.081,268.672 293.5,267.5C 292.034,265.343 290.2,265.01 288,266.5C 287.833,265.667 287.667,264.833 287.5,264C 287.969,262.113 288.969,260.613 290.5,259.5C 288.124,256.703 286.958,253.369 287,249.5C 286.667,255.167 286.333,260.833 286,266.5C 285.617,265.944 285.117,265.611 284.5,265.5C 283.922,258.287 284.588,251.287 286.5,244.5C 285.5,243.5 284.5,242.5 283.5,241.5C 282.833,237.018 282.166,232.684 281.5,228.5C 281.154,218.622 280.154,208.955 278.5,199.5C 278.556,194.269 277.889,189.269 276.5,184.5C 275.124,164.72 273.124,145.72 270.5,127.5C 269.043,132.598 268.376,137.931 268.5,143.5C 267.167,143.5 265.833,143.5 264.5,143.5C 266.636,151.7 266.97,160.033 265.5,168.5C 264.506,163.544 264.173,158.544 264.5,153.5C 263.5,153.5 262.5,153.5 261.5,153.5C 261.5,155.5 261.5,157.5 261.5,159.5C 260.5,159.5 259.5,159.5 258.5,159.5C 258.177,163.226 258.511,166.893 259.5,170.5C 260.79,168.343 261.624,166.01 262,163.5C 262.507,169.543 263.34,175.543 264.5,181.5C 263.44,187.34 262.107,193.173 260.5,199C 261.191,200.067 261.691,201.234 262,202.5C 262.667,208.167 262.667,213.833 262,219.5C 261.667,219.833 261.333,220.167 261,220.5C 260.667,215.167 260.333,209.833 260,204.5C 259.667,204.833 259.333,205.167 259,205.5C 258.431,214.216 258.931,222.882 260.5,231.5C 260.414,236.212 259.914,240.879 259,245.5C 257.844,244.007 257.01,244.174 256.5,246C 256.892,247.011 257.559,247.511 258.5,247.5C 257.975,248.192 257.308,248.692 256.5,249C 258.444,256.222 259.111,263.722 258.5,271.5C 258.5,274.5 258.5,277.5 258.5,280.5C 256.988,285.929 256.321,291.596 256.5,297.5C 254.165,334.193 251.498,370.859 248.5,407.5C 247.116,412.944 246.45,418.611 246.5,424.5C 246.5,427.167 246.5,429.833 246.5,432.5C 244.85,438.25 244.184,444.25 244.5,450.5C 240.701,512.249 235.868,573.915 230,635.5C 228.603,637.07 227.103,638.404 225.5,639.5C 223.167,639.5 220.833,639.5 218.5,639.5C 215.8,637.954 213.967,635.621 213,632.5C 209.764,611.874 206.931,591.208 204.5,570.5C 205.144,563.876 204.31,557.543 202,551.5C 201.113,544.856 200.446,538.189 200,531.5C 199.617,530.944 199.117,530.611 198.5,530.5C 192.385,495.41 187.051,460.077 182.5,424.5C 181.887,416.153 181.054,407.82 180,399.5C 179.617,398.944 179.117,398.611 178.5,398.5C 175.217,380.72 172.55,362.72 170.5,344.5C 170.291,337.956 169.625,331.456 168.5,325C 168.453,322.705 167.787,320.871 166.5,319.5C 164.824,308.792 162.824,298.125 160.5,287.5C 156.527,303.521 152.361,319.521 148,335.5C 147.31,338.196 145.81,340.363 143.5,342C 95.5012,342.5 47.5012,342.667 -0.5,342.5C -0.5,338.167 -0.5,333.833 -0.5,329.5C 42.5018,329.035 85.5018,328.369 128.5,327.5C 95.4897,327.163 62.8231,326.163 30.5,324.5C 64.531,324.187 98.531,324.521 132.5,325.5C 134.701,315.029 137.368,304.696 140.5,294.5C 142.498,290.874 143.498,286.874 143.5,282.5C 146.753,267.203 150.753,252.203 155.5,237.5C 159.284,234.576 163.617,233.743 168.5,235C 169.886,238.898 171.22,242.732 172.5,246.5C 173.434,247.568 173.768,248.901 173.5,250.5C 173.335,253.85 173.502,257.183 174,260.5C 174.383,261.056 174.883,261.389 175.5,261.5C 175.5,262.5 175.5,263.5 175.5,264.5C 176.545,274.829 176.711,285.163 176,295.5C 176.182,292.774 176.682,290.107 177.5,287.5C 178.321,291.673 179.321,295.673 180.5,299.5C 183.438,312.57 185.438,325.903 186.5,339.5C 186.904,346.522 187.571,353.522 188.5,360.5C 188.294,363.623 187.627,366.623 186.5,369.5C 187.972,373.291 189.139,372.958 190,368.5C 190.311,372.09 191.144,375.423 192.5,378.5C 197.47,406.692 201.803,435.026 205.5,463.5C 205.335,466.85 205.502,470.183 206,473.5C 206.383,474.056 206.883,474.389 207.5,474.5C 210.787,498.92 214.621,523.254 219,547.5C 220.976,529.882 222.476,512.215 223.5,494.5C 224.117,494.389 224.617,494.056 225,493.5C 226.106,484.533 226.606,475.533 226.5,466.5C 232.581,381.64 239.248,296.974 246.5,212.5C 250.086,190.236 251.753,167.569 251.5,144.5C 252.54,126.141 253.873,107.808 255.5,89.5C 256.397,90.5981 257.23,90.5981 258,89.5C 258.333,82.5 258.667,75.5 259,68.5C 259.333,68.1667 259.667,67.8333 260,67.5C 260.029,70.3665 260.862,72.8665 262.5,75C 261.62,76.3561 261.286,77.8561 261.5,79.5C 262.833,79.5 264.167,79.5 265.5,79.5C 265.708,81.9201 265.374,84.2534 264.5,86.5C 265.083,88.0016 265.916,89.3349 267,90.5C 267.203,86.5787 267.703,82.7454 268.5,79C 266.823,75.8256 265.657,72.3256 265,68.5C 264.781,69.938 264.281,71.2713 263.5,72.5C 260.508,60.7273 259.841,48.7273 261.5,36.5C 262.167,41.5 262.833,46.5 263.5,51.5C 264.72,51.1131 265.387,50.2798 265.5,49C 265.022,43.6923 264.188,38.5257 263,33.5C 262.333,27.5 262.333,21.5 263,15.5C 264.512,13.0426 265.846,13.0426 267,15.5C 272.406,14.2829 272.573,13.1162 267.5,12C 270.384,10.185 273.384,10.0183 276.5,11.5 Z"/></g>
<g><path style="opacity:1" fill="#d3302e" d="M 186.5,339.5 C 189.761,352.167 191.761,365.167 192.5,378.5C 191.144,375.423 190.311,372.09 190,368.5C 189.139,372.958 187.972,373.291 186.5,369.5C 187.627,366.623 188.294,363.623 188.5,360.5C 187.571,353.522 186.904,346.522 186.5,339.5 Z"/></g>
<g><path style="opacity:1" fill="#cd2c2b" d="M 175.5,264.5 C 177.813,275.95 179.48,287.617 180.5,299.5C 179.321,295.673 178.321,291.673 177.5,287.5C 176.682,290.107 176.182,292.774 176,295.5C 176.711,285.163 176.545,274.829 175.5,264.5 Z"/></g>
<g><path style="opacity:1" fill="#d04f4a" d="M 173.5,250.5 C 174.903,253.909 175.57,257.575 175.5,261.5C 174.883,261.389 174.383,261.056 174,260.5C 173.502,257.183 173.335,253.85 173.5,250.5 Z"/></g>
<g><path style="opacity:1" fill="#ce2628" d="M 281.5,228.5 C 282.166,232.684 282.833,237.018 283.5,241.5C 284.5,242.5 285.5,243.5 286.5,244.5C 284.588,251.287 283.922,258.287 284.5,265.5C 282.842,256.046 281.842,246.38 281.5,236.5C 281.5,233.833 281.5,231.167 281.5,228.5 Z"/></g>
<g><path style="opacity:1" fill="#bc3434" d="M 278.5,199.5 C 280.154,208.955 281.154,218.622 281.5,228.5C 281.5,231.167 281.5,233.833 281.5,236.5C 279.87,224.363 278.87,212.03 278.5,199.5 Z"/></g>
<g><path style="opacity:1" fill="#d92a2c" d="M 270.5,127.5 C 266.846,175.681 262.846,223.681 258.5,271.5C 259.111,263.722 258.444,256.222 256.5,249C 257.308,248.692 257.975,248.192 258.5,247.5C 257.559,247.511 256.892,247.011 256.5,246C 257.01,244.174 257.844,244.007 259,245.5C 259.914,240.879 260.414,236.212 260.5,231.5C 258.931,222.882 258.431,214.216 259,205.5C 259.333,205.167 259.667,204.833 260,204.5C 260.333,209.833 260.667,215.167 261,220.5C 261.333,220.167 261.667,219.833 262,219.5C 262.667,213.833 262.667,208.167 262,202.5C 261.691,201.234 261.191,200.067 260.5,199C 262.107,193.173 263.44,187.34 264.5,181.5C 263.34,175.543 262.507,169.543 262,163.5C 261.624,166.01 260.79,168.343 259.5,170.5C 258.511,166.893 258.177,163.226 258.5,159.5C 259.5,159.5 260.5,159.5 261.5,159.5C 261.5,157.5 261.5,155.5 261.5,153.5C 262.5,153.5 263.5,153.5 264.5,153.5C 264.173,158.544 264.506,163.544 265.5,168.5C 266.97,160.033 266.636,151.7 264.5,143.5C 265.833,143.5 267.167,143.5 268.5,143.5C 268.376,137.931 269.043,132.598 270.5,127.5 Z"/></g>
<g><path style="opacity:1" fill="#bc4042" d="M 276.5,184.5 C 277.889,189.269 278.556,194.269 278.5,199.5C 277.111,194.731 276.444,189.731 276.5,184.5 Z"/></g>
<g><path style="opacity:1" fill="#bd2c2d" d="M 294.5,375.5 C 295.803,382.701 296.803,390.034 297.5,397.5C 297.84,399.679 298.84,401.512 300.5,403C 303.482,403.498 306.482,403.665 309.5,403.5C 305.065,406.034 300.898,405.368 297,401.5C 294.997,392.952 294.163,384.285 294.5,375.5 Z"/></g>
<g><path style="opacity:1" fill="#c13232" d="M 1000.5,375.5 C 1000.69,382.881 1000.19,390.214 999,397.5C 998.994,400.264 997.828,402.264 995.5,403.5C 995.754,400.986 996.587,398.652 998,396.5C 998.254,389.285 999.087,382.285 1000.5,375.5 Z"/></g>
<g><path style="opacity:1" fill="#e32127" d="M 1110.5,326.5 C 1110.5,329.5 1110.5,332.5 1110.5,335.5C 1111.5,335.5 1112.5,335.5 1113.5,335.5C 1113.34,338.187 1113.5,340.854 1114,343.5C 1114.33,343.167 1114.67,342.833 1115,342.5C 1115.33,343.5 1115.67,344.5 1116,345.5C 1116.32,343.699 1116.98,343.366 1118,344.5C 1118.33,340.167 1118.67,335.833 1119,331.5C 1119.17,339.581 1120,347.581 1121.5,355.5C 1122.98,351.122 1122.64,346.956 1120.5,343C 1120.67,342.5 1120.83,342 1121,341.5C 1121.42,343.426 1122.59,344.426 1124.5,344.5C 1123.43,355.386 1121.77,366.052 1119.5,376.5C 1119.57,374.599 1119.23,372.766 1118.5,371C 1118.61,369.278 1119.11,369.112 1120,370.5C 1120.51,364.135 1120.18,357.801 1119,351.5C 1117.77,354.381 1116.27,357.047 1114.5,359.5C 1113.2,356.03 1113.53,352.697 1115.5,349.5C 1115.55,348 1114.88,347 1113.5,346.5C 1112.83,348.167 1112.17,349.833 1111.5,351.5C 1110.67,347.541 1110.17,343.541 1110,339.5C 1108.52,344.076 1108.19,348.743 1109,353.5C 1110.7,355.024 1110.2,356.024 1107.5,356.5C 1106.51,360.107 1106.18,363.774 1106.5,367.5C 1108.5,367.5 1110.5,367.5 1112.5,367.5C 1112.2,365.396 1112.53,363.396 1113.5,361.5C 1113.92,363.353 1114.25,365.187 1114.5,367C 1113.07,369.221 1111.07,370.721 1108.5,371.5C 1105.35,375.418 1104.68,379.751 1106.5,384.5C 1105.5,384.5 1104.5,384.5 1103.5,384.5C 1102.27,382.956 1102.11,384.623 1103,389.5C 1103.43,386.507 1104.59,386.007 1106.5,388C 1105.31,390.658 1106.31,391.824 1109.5,391.5C 1109.86,394.898 1109.19,398.065 1107.5,401C 1108.19,403.795 1108.69,406.628 1109,409.5C 1111.11,401.339 1112.44,401.672 1113,410.5C 1114.36,405.667 1115.19,400.667 1115.5,395.5C 1114.5,395.5 1113.5,395.5 1112.5,395.5C 1112.44,390.229 1112.77,385.229 1113.5,380.5C 1114,379.479 1114.67,379.312 1115.5,380C 1116.1,382.071 1117.44,383.238 1119.5,383.5C 1116.26,406.374 1112.59,429.041 1108.5,451.5C 1108.54,445.1 1107.87,438.767 1106.5,432.5C 1106.83,430.5 1107.17,428.5 1107.5,426.5C 1108.17,430.167 1108.83,433.833 1109.5,437.5C 1109.83,435.5 1110.17,433.5 1110.5,431.5C 1108.57,419.215 1106.57,407.215 1104.5,395.5C 1106.35,395.728 1107.19,395.061 1107,393.5C 1105.99,394.337 1104.82,394.67 1103.5,394.5C 1103.66,397.518 1103.5,400.518 1103,403.5C 1102.88,400.629 1102.22,397.962 1101,395.5C 1100.83,397.167 1100.67,398.833 1100.5,400.5C 1102.2,405.305 1102.7,410.305 1102,415.5C 1101.67,412.833 1101.33,410.167 1101,407.5C 1100.33,406.167 1099.67,406.167 1099,407.5C 1098.16,413.506 1097.33,419.506 1096.5,425.5C 1097.36,430.927 1098.52,436.261 1100,441.5C 1100.87,445.956 1100.53,450.289 1099,454.5C 1098.88,447.963 1097.71,441.63 1095.5,435.5C 1094.39,439.493 1094.39,443.493 1095.5,447.5C 1094.5,447.5 1093.5,447.5 1092.5,447.5C 1092.75,451.458 1092.08,455.124 1090.5,458.5C 1094.81,426.137 1099.31,393.804 1104,361.5C 1105.77,349.619 1107.94,337.952 1110.5,326.5 Z"/></g>
<g><path style="opacity:1" fill="#c23231" d="M 178.5,398.5 C 179.117,398.611 179.617,398.944 180,399.5C 181.054,407.82 181.887,416.153 182.5,424.5C 180.52,416.066 179.187,407.4 178.5,398.5 Z"/></g>
<g><path style="opacity:1" fill="#de2a2c" d="M 1042.5,356.5 C 1044.13,361.437 1045.13,366.771 1045.5,372.5C 1046.25,371.624 1046.75,370.624 1047,369.5C 1047.17,370.167 1047.33,370.833 1047.5,371.5C 1046.24,378.493 1046.24,385.493 1047.5,392.5C 1048.56,394.414 1049.56,395.914 1050.5,397C 1048.33,405.068 1047.99,413.235 1049.5,421.5C 1050.17,416.833 1050.83,412.167 1051.5,407.5C 1052.44,415.482 1053.11,423.482 1053.5,431.5C 1054.5,431.5 1055.5,431.5 1056.5,431.5C 1056.17,426.125 1056.51,420.792 1057.5,415.5C 1058.1,426.321 1059.1,436.988 1060.5,447.5C 1059.5,447.5 1058.5,447.5 1057.5,447.5C 1056.78,443.835 1055.95,440.168 1055,436.5C 1054.95,441.679 1054.28,446.679 1053,451.5C 1052.5,459.159 1052.33,466.826 1052.5,474.5C 1055.54,474.406 1057.21,475.906 1057.5,479C 1056.72,481.74 1056.22,484.574 1056,487.5C 1055.67,484.833 1055.33,482.167 1055,479.5C 1054.5,486.492 1054.33,493.492 1054.5,500.5C 1050.15,452.675 1046.15,404.675 1042.5,356.5 Z"/></g>
<g><path style="opacity:1" fill="#c1423e" d="M 248.5,407.5 C 248.55,413.389 247.884,419.056 246.5,424.5C 246.45,418.611 247.116,412.944 248.5,407.5 Z"/></g>
<g><path style="opacity:1" fill="#be3e3f" d="M 246.5,432.5 C 246.477,438.712 245.81,444.712 244.5,450.5C 244.184,444.25 244.85,438.25 246.5,432.5 Z"/></g>
<g><path style="opacity:1" fill="#cd4a4b" d="M 205.5,463.5 C 206.903,466.909 207.57,470.575 207.5,474.5C 206.883,474.389 206.383,474.056 206,473.5C 205.502,470.183 205.335,466.85 205.5,463.5 Z"/></g>
<g><path style="opacity:1" fill="#cd4946" d="M 1089.5,463.5 C 1089.67,466.85 1089.5,470.183 1089,473.5C 1088.62,474.056 1088.12,474.389 1087.5,474.5C 1087.43,470.575 1088.1,466.909 1089.5,463.5 Z"/></g>
<g><path style="opacity:1" fill="#d92528" d="M 1087.5,476.5 C 1088.83,476.5 1090.17,476.5 1091.5,476.5C 1092.11,481.618 1090.94,486.285 1088,490.5C 1087.67,489.833 1087.33,489.167 1087,488.5C 1087.28,494.818 1087.28,501.151 1087,507.5C 1086.82,504.774 1086.32,502.107 1085.5,499.5C 1084.82,503.71 1083.82,507.71 1082.5,511.5C 1083.61,499.621 1085.27,487.954 1087.5,476.5 Z"/></g>
<g><path style="opacity:1" fill="#e8b1b1" d="M 1105.5,478.5 C 1106.04,481.698 1105.37,484.365 1103.5,486.5C 1103.34,484.143 1103.5,481.81 1104,479.5C 1104.38,478.944 1104.88,478.611 1105.5,478.5 Z"/></g>
<g><path style="opacity:1" fill="#c32e2e" d="M 226.5,466.5 C 226.606,475.533 226.106,484.533 225,493.5C 224.617,494.056 224.117,494.389 223.5,494.5C 224.112,485.004 225.112,475.67 226.5,466.5 Z"/></g>
<g><path style="opacity:1" fill="#cd423f" d="M 1068.5,466.5 C 1070.29,475.944 1071.29,485.611 1071.5,495.5C 1070.78,495.082 1070.28,494.416 1070,493.5C 1068.89,484.533 1068.39,475.533 1068.5,466.5 Z"/></g>
<g><path style="opacity:1" fill="#f6dcdd" d="M 1071.5,500.5 C 1072.46,500.953 1073.29,501.619 1074,502.5C 1074.17,509.524 1074.67,516.524 1075.5,523.5C 1076.28,522.271 1076.78,520.938 1077,519.5C 1077.33,520.167 1077.67,520.833 1078,521.5C 1078.93,520.142 1079.77,518.808 1080.5,517.5C 1079.5,527.535 1078.16,537.535 1076.5,547.5C 1074.98,543.324 1074.15,538.991 1074,534.5C 1073.5,523.135 1072.66,511.801 1071.5,500.5 Z"/></g>
<g><path style="opacity:1" fill="#cd2628" d="M 198.5,530.5 C 199.117,530.611 199.617,530.944 200,531.5C 200.446,538.189 201.113,544.856 202,551.5C 204.31,557.543 205.144,563.876 204.5,570.5C 201.532,557.453 199.532,544.12 198.5,530.5 Z"/></g>
</svg>
