<?xml version="1.0" standalone="no"?>
<!DOCTYPE svg PUBLIC "-//W3C//DTD SVG 20010904//EN"
 "http://www.w3.org/TR/2001/REC-SVG-20010904/DTD/svg10.dtd">
<svg version="1.0" xmlns="http://www.w3.org/2000/svg"
 width="1920.000000pt" height="1920.000000pt" viewBox="0 0 1920.000000 1920.000000"
 preserveAspectRatio="xMidYMid meet">

<g transform="translate(0.000000,1920.000000) scale(0.100000,-0.100000)"
fill="#000000" stroke="none">
<path d="M7428 13794 c-3 -3 -28 -9 -55 -14 l-48 -8 45 -1 c100 -3 -38 -35
-220 -50 -99 -8 -300 -64 -300 -84 0 -6 28 -8 77 -3 42 3 265 6 496 6 l419 0
-17 28 c-37 60 -45 62 -204 63 l-146 1 70 13 c39 7 96 16 129 20 58 7 58 7 31
21 -19 10 -64 14 -149 14 -68 0 -125 -3 -128 -6z"/>
<path d="M6742 13585 c-18 -8 -31 -19 -27 -25 7 -11 1157 -15 1168 -4 3 4 2
15 -4 25 -9 18 -33 19 -557 19 -454 -1 -553 -3 -580 -15z"/>
<path d="M6645 13510 l-29 -30 661 0 661 0 -14 30 -15 30 -618 0 -617 0 -29
-30z"/>
<path d="M6577 13442 c-15 -15 -27 -31 -27 -35 0 -3 39 -8 88 -10 l87 -3 -97
-2 -97 -2 -33 -41 c-18 -23 -32 -46 -30 -50 1 -5 -2 -9 -8 -9 -5 0 -28 -27
-50 -60 -46 -67 -47 -66 50 -73 30 -2 22 -4 -27 -5 -66 -2 -73 -4 -97 -33 -28
-33 -33 -55 -13 -62 7 -3 6 -6 -5 -6 -15 -1 -58 -49 -58 -65 0 -3 149 -6 332
-6 183 0 328 -4 323 -8 -10 -9 -540 -91 -652 -102 -34 -3 -64 -8 -66 -10 -3
-3 -16 -28 -31 -57 l-26 -52 33 -4 32 -4 -32 -1 c-28 -2 -36 -8 -53 -44 -10
-24 -31 -81 -46 -127 -14 -47 -28 -91 -31 -98 -4 -10 20 -13 118 -14 149 -1
124 -17 -28 -18 -85 -1 -103 -4 -103 -16 0 -9 9 -15 25 -15 35 0 31 -15 -7
-26 -29 -8 -33 -14 -36 -47 l-3 -37 1295 0 c1030 0 1296 3 1296 13 0 6 -7 21
-16 32 -14 20 -30 20 -617 25 -600 5 -601 5 -417 18 102 7 334 17 515 22 182
5 358 12 392 16 71 7 71 1 6 111 -24 39 -43 75 -43 80 0 5 -16 33 -36 63 -20
30 -40 64 -45 75 -5 11 -13 27 -18 35 -5 8 -28 48 -51 88 l-42 72 -102 1 c-81
1 -93 3 -61 10 22 4 66 8 99 8 45 1 56 4 49 14 -6 6 -26 41 -46 77 -92 169
-119 215 -127 220 -5 3 -73 0 -152 -7 -210 -17 -1053 -15 -1035 3 2 2 156 13
342 24 187 11 373 25 413 30 40 6 140 10 222 10 82 0 155 3 163 6 12 4 11 13
-11 52 -14 26 -32 53 -40 60 -12 9 -163 12 -677 12 l-661 0 -27 -28z m561 -49
c-54 -2 -142 -2 -195 0 -54 1 -10 3 97 3 107 0 151 -2 98 -3z m-450 -60 c-10
-2 -28 -2 -40 0 -13 2 -5 4 17 4 22 1 32 -1 23 -4z m1105 -180 c-51 -2 -136
-2 -190 0 -54 1 -12 3 92 3 105 0 149 -2 98 -3z m-705 -100 c-98 -2 -258 -2
-355 0 -98 1 -18 2 177 2 195 0 275 -1 178 -2z m975 0 c-18 -2 -48 -2 -65 0
-18 2 -4 4 32 4 36 0 50 -2 33 -4z m-538 -83 c-30 -14 -355 -68 -480 -80 -113
-11 -502 -23 -475 -15 22 7 618 94 670 98 101 8 305 5 285 -3z m368 -27 c-7
-2 -21 -2 -30 0 -10 3 -4 5 12 5 17 0 24 -2 18 -5z m-330 -200 c-83 -2 -223
-2 -310 0 -87 1 -18 3 152 3 171 0 242 -2 158 -3z m232 -293 c-144 -11 -1374
-10 -1350 0 11 5 342 8 735 8 393 -1 670 -5 615 -8z m-648 -47 c-16 -15 -363
-32 -671 -32 -181 -1 -327 1 -324 4 3 3 34 12 69 20 49 10 168 14 498 14 239
1 431 -2 428 -6z"/>
<path d="M6007 12283 c-4 -3 -7 -12 -7 -20 0 -11 160 -13 913 -15 l912 -3
-920 -5 -920 -5 0 -30 0 -30 600 -5 600 -5 -600 -5 c-561 -5 -600 -6 -603 -22
-3 -14 3 -18 22 -18 36 0 33 -16 -4 -23 -29 -6 -30 -9 -30 -57 l0 -50 1138 -1
c625 0 1157 -4 1182 -9 27 -6 -259 -7 -705 -5 -470 3 -802 1 -890 -5 -77 -6
-272 -13 -432 -17 l-293 -5 0 -44 0 -44 1389 0 c1064 0 1392 3 1397 12 4 6 2
14 -5 16 -8 3 -5 9 8 19 12 8 21 25 21 38 0 29 0 29 -170 45 -188 17 -213 24
-108 30 92 6 120 18 99 44 -10 12 -1 16 59 26 38 6 70 16 70 21 0 5 -9 18 -20
29 -20 20 -30 20 -390 18 -204 -2 -370 0 -370 5 0 4 169 7 375 7 206 0 375 3
375 7 0 3 -7 15 -17 25 -9 10 -21 28 -27 41 l-12 22 -319 1 c-176 0 -387 6
-470 12 -162 12 -1837 17 -1848 5z m2552 -168 c-3 -2 -58 -11 -122 -20 -101
-13 -279 -15 -1205 -14 -695 1 -1074 4 -1052 10 61 17 2395 40 2379 24z m-864
-215 c33 -4 -264 -7 -660 -8 -396 0 -709 4 -695 8 32 10 1274 10 1355 0z"/>
<path d="M5974 11806 c-3 -8 -4 -23 -2 -33 3 -17 51 -18 1078 -23 l1075 -5
-1072 -3 c-707 -1 -1074 -5 -1078 -12 -11 -17 6 -51 28 -60 18 -7 19 -9 4 -9
-14 -1 -18 -8 -15 -28 l3 -28 274 -7 c150 -4 276 -10 279 -13 3 -3 -120 -5
-272 -5 l-278 0 7 -27 c4 -16 7 -29 9 -30 1 -1 550 -3 1221 -4 l1219 -2 36 31
35 31 -114 0 c-63 1 -112 3 -109 7 3 3 66 11 139 19 108 12 136 18 153 35 l20
20 -109 2 -110 2 113 5 c106 6 114 8 132 31 11 14 20 28 20 32 0 4 -21 9 -47
11 -44 3 -43 4 14 5 55 2 64 5 82 31 11 15 18 31 14 35 -3 3 -622 6 -1375 6
-1183 0 -1369 -2 -1374 -14z m2136 -199 c-53 -14 -791 -12 -995 1 -95 7 27 9
455 9 452 1 575 -2 540 -10z"/>
<path d="M6030 11455 c0 -16 22 -107 28 -115 2 -3 236 -7 520 -10 l517 -5
-513 -3 c-483 -2 -513 -3 -510 -19 3 -17 62 -18 1044 -21 l1041 -2 87 66 c47
36 86 70 86 75 0 5 -428 10 -1012 12 l-1013 2 1030 3 c887 2 1033 5 1049 17
18 13 -121 15 -1167 15 -1043 0 -1187 -2 -1187 -15z"/>
<path d="M7565 11219 c-154 -3 -547 -7 -872 -8 -400 -1 -593 -4 -593 -11 0 -6
7 -26 14 -45 14 -32 19 -35 58 -36 l43 -2 -38 -6 c-21 -3 -38 -9 -37 -13 0 -5
0 -12 0 -18 0 -5 17 -11 38 -12 l37 -1 -33 -4 c-32 -4 -33 -6 -26 -36 3 -18
11 -37 16 -44 7 -8 95 -13 311 -15 244 -3 311 -7 347 -20 43 -15 29 -16 -293
-17 -317 -1 -338 -2 -335 -18 3 -17 34 -18 428 -23 272 -3 434 -9 449 -16 22
-10 18 -12 -39 -17 -34 -4 -231 -7 -436 -7 -367 0 -374 0 -374 -20 0 -11 9
-29 19 -39 12 -12 15 -21 9 -23 -7 -3 -9 -12 -5 -21 5 -14 21 -17 84 -18 l78
-1 -55 -14 c-85 -23 -81 -19 -68 -54 10 -29 13 -31 42 -25 17 4 211 9 431 11
l400 2 -145 -24 c-119 -21 -194 -27 -420 -32 -235 -6 -275 -9 -275 -22 0 -11
17 -16 70 -21 63 -5 65 -6 20 -7 -71 -3 -80 -11 -61 -55 20 -50 45 -53 346
-37 140 7 433 14 650 16 378 2 392 2 330 -13 -55 -14 -163 -17 -687 -20 l-622
-4 14 -38 c7 -21 19 -48 26 -60 14 -21 15 -21 564 -23 l550 -3 -547 -2 c-366
-2 -548 -7 -548 -13 0 -6 7 -26 14 -45 l15 -35 292 0 c161 0 289 -4 283 -8
-17 -15 -337 -76 -429 -81 -100 -7 -113 -18 -78 -65 l18 -25 200 -1 c116 0
195 -4 190 -9 -17 -15 -138 -31 -238 -31 -52 0 -102 -3 -110 -6 -18 -6 -13
-30 18 -88 36 -67 42 -79 61 -119 11 -21 28 -49 39 -63 l20 -24 849 2 849 3
-27 31 c-14 18 -26 35 -26 40 0 4 -12 21 -27 36 -26 27 -30 28 -147 30 l-121
2 118 3 c64 2 117 6 117 9 0 3 -9 19 -21 35 l-20 29 -382 2 -382 1 350 14
c193 8 361 17 374 19 22 5 23 6 6 24 -18 19 -36 20 -609 21 -547 1 -585 3
-516 16 57 11 197 16 577 20 l502 5 -23 41 -23 42 -139 5 -139 5 109 22 c60
13 111 25 113 27 7 6 -20 76 -28 76 -4 0 -11 10 -15 23 -3 12 -24 52 -46 90
l-40 67 -67 0 c-46 0 -62 3 -51 10 8 5 29 10 47 10 17 0 34 3 36 8 2 4 -4 25
-14 48 l-18 41 -268 17 c-147 10 -331 21 -408 24 l-140 7 190 28 c225 32 467
38 528 12 20 -8 39 -15 42 -15 12 0 -7 45 -26 62 -11 9 -15 19 -10 22 6 4 6
17 0 36 l-11 29 -101 4 -102 3 103 2 103 2 -3 33 -3 32 -170 5 c-185 5 -176
11 55 31 133 11 140 13 140 34 0 12 -67 15 -412 17 -361 3 -417 5 -448 20 -33
16 -12 16 427 17 l461 1 37 43 36 42 -323 5 c-261 4 -305 7 -228 13 52 4 171
17 263 28 93 10 204 19 248 19 95 0 130 13 184 69 l39 41 -124 -2 c-69 -1
-251 -5 -405 -9z m370 -42 c-49 -12 -1727 -22 -1765 -10 -14 4 335 10 775 13
440 3 852 6 915 6 96 1 108 0 75 -9z m-605 -67 c-101 -10 -907 -10 -945 0 -16
4 206 7 495 7 289 0 491 -3 450 -7z m-31 -225 c-8 -7 -108 -9 -116 -2 -3 4 22
7 57 7 35 0 61 -2 59 -5z m267 -167 c4 -5 4 -11 0 -15 -4 -5 -209 -9 -454 -11
-246 -2 -444 -1 -441 2 3 3 43 12 90 20 64 11 170 14 441 13 196 -1 360 -5
364 -9z m127 5 c-7 -2 -19 -2 -25 0 -7 3 -2 5 12 5 14 0 19 -2 13 -5z m-328
-183 c29 -4 -99 -7 -305 -7 -195 -1 -341 3 -325 7 40 10 566 10 630 0z m672
-336 c-8 -8 -212 -51 -332 -69 -67 -11 -188 -14 -465 -14 l-375 1 135 29 c266
58 261 57 664 58 209 1 377 -2 373 -5z m-982 -264 c-153 -10 -326 -10 -295 0
14 4 111 8 215 7 175 0 181 -1 80 -7z"/>
<path d="M8395 9622 c-44 -14 -151 -17 -830 -21 -678 -5 -780 -8 -777 -21 4
-19 69 -125 105 -172 l29 -38 336 -1 337 -1 -190 -28 c-104 -15 -245 -31 -313
-35 -134 -8 -134 -9 -91 -64 11 -14 33 -44 50 -66 61 -82 75 -99 100 -126 15
-16 25 -30 23 -32 -2 -2 4 -11 14 -20 15 -14 96 -25 287 -39 17 -1 -32 -5
-108 -8 l-137 -5 22 -32 c13 -17 58 -73 100 -125 43 -51 90 -108 105 -127 l28
-34 378 6 c209 3 377 4 375 2 -10 -11 -413 -57 -541 -62 -152 -6 -163 -10
-116 -45 21 -15 33 -16 94 -8 39 5 165 9 280 8 l210 -1 -105 -12 c-58 -7 -183
-14 -277 -14 -95 -1 -173 -4 -173 -7 0 -6 77 -90 160 -174 19 -19 35 -37 35
-40 0 -3 32 -35 69 -72 l69 -68 336 -2 336 -3 -327 -5 -327 -5 55 -57 54 -58
117 -2 118 -2 -102 -3 c-57 -2 -103 -7 -103 -12 0 -4 31 -38 69 -74 l69 -67
384 -2 383 -3 -374 -5 -375 -5 73 -66 c43 -40 85 -69 103 -73 17 -3 236 -7
487 -7 392 -1 449 -3 406 -14 -36 -10 -163 -13 -460 -14 l-410 -2 50 -44 49
-45 115 0 c63 0 112 -3 109 -6 -3 -3 -35 -12 -69 -20 -96 -22 -95 -21 -73 -45
45 -49 35 -49 539 2 258 26 471 47 472 45 1 -1 -106 -29 -240 -62 l-242 -59
-215 -5 -215 -5 40 -30 c21 -16 47 -38 57 -47 14 -14 32 -16 110 -13 87 4 90
3 38 -6 -83 -16 -84 -17 -70 -34 7 -8 34 -31 61 -51 45 -33 55 -36 141 -41
l93 -7 -58 -12 c-60 -12 -81 -23 -59 -31 7 -3 34 -20 60 -38 26 -18 91 -61
145 -95 l99 -62 162 11 c172 12 503 15 493 5 -11 -11 -351 -64 -454 -71 -80
-5 -101 -9 -93 -18 13 -16 54 -32 104 -40 28 -5 35 -9 26 -15 -13 -8 54 -48
160 -95 19 -9 42 -20 50 -25 8 -5 44 -24 80 -41 63 -32 70 -33 225 -39 l160
-5 -103 -9 c-56 -5 -104 -12 -107 -16 -5 -7 29 -22 155 -70 47 -17 96 -39 109
-47 13 -8 56 -19 95 -23 39 -4 65 -8 59 -9 -7 0 -13 -5 -13 -11 0 -16 66 -12
170 10 52 11 106 20 120 20 22 0 19 -4 -21 -29 -25 -16 -49 -36 -52 -44 -3 -9
-16 -17 -29 -19 -20 -4 -18 -6 16 -21 21 -9 44 -17 51 -17 7 0 46 -14 86 -31
182 -75 460 -158 584 -173 22 -2 60 -10 85 -17 31 -9 125 -13 305 -13 232 0
270 2 350 21 50 12 114 27 143 33 28 7 50 15 47 20 -2 4 14 10 36 14 118 19
518 195 512 225 -2 6 4 11 13 11 20 0 94 41 94 52 0 4 5 8 11 8 21 0 150 90
144 101 -4 6 -52 9 -121 8 -64 -1 -118 2 -121 5 -4 3 5 6 18 6 13 0 95 13 183
29 l159 29 78 78 c43 43 76 81 73 86 -3 5 5 17 18 28 23 19 22 19 -171 20
-107 0 -192 2 -189 5 12 13 127 28 258 34 l144 6 17 35 c19 37 79 201 79 214
0 4 -62 4 -137 0 -76 -4 -136 -4 -133 -1 3 3 66 15 140 27 75 11 137 26 142
33 27 42 -2 44 -282 21 -55 -4 -69 -2 -90 15 -31 24 -44 20 198 64 106 20 200
41 208 48 19 16 18 49 -2 49 -12 0 -10 5 7 19 13 11 21 23 16 27 -4 4 -55 -3
-114 -16 -99 -21 -113 -21 -178 -9 l-70 13 40 7 c22 4 92 10 155 14 172 9 164
6 178 73 7 32 12 101 12 153 0 103 -12 134 -53 142 -22 4 -22 4 1 6 32 2 24
20 -27 59 l-43 32 -421 0 c-276 0 -417 4 -407 10 8 5 57 10 108 10 88 0 94 1
99 21 l6 22 253 -7 c147 -4 254 -3 258 2 3 5 -16 20 -42 33 -46 23 -53 24
-251 22 -112 -1 -200 1 -195 6 5 4 32 24 60 44 47 33 58 37 115 37 l64 0 -50
33 -49 32 -351 5 -350 5 325 5 c295 5 323 6 300 20 -20 12 -82 16 -315 20
l-290 5 210 30 c116 17 210 34 209 40 -1 10 -22 23 -174 103 -47 24 -97 53
-111 63 -37 26 -66 30 -144 20 -60 -8 -72 -7 -83 8 -7 9 -23 28 -37 42 l-24
27 39 6 c81 13 30 40 -56 30 -29 -4 -59 -2 -70 4 -15 8 -7 11 41 17 l59 8 -31
26 c-17 14 -53 37 -79 51 -26 14 -57 35 -70 48 -13 12 -28 22 -33 22 -6 0 -27
12 -48 26 -37 25 -41 25 -183 22 l-146 -3 -77 -58 c-43 -32 -75 -63 -72 -68 4
-5 21 -9 40 -9 59 0 47 -17 -18 -24 -56 -6 -66 -10 -106 -51 -25 -24 -42 -47
-39 -50 3 -3 151 6 329 21 252 20 330 24 353 15 16 -6 27 -13 25 -15 -3 -3
-595 -95 -786 -122 -26 -4 -40 -16 -67 -57 -19 -29 -51 -73 -71 -99 l-37 -48
34 0 c18 0 130 7 248 15 369 25 334 13 -75 -25 -121 -11 -229 -24 -240 -29
-11 -5 -27 -20 -35 -35 -7 -15 -55 -67 -104 -116 l-91 -90 34 0 c19 0 157 11
305 25 242 23 311 25 641 23 356 -3 366 -3 255 -15 -318 -34 -497 -43 -863
-43 -364 0 -380 -1 -404 -20 l-26 -20 89 -2 89 -1 -100 -7 c-69 -4 -111 -11
-135 -24 -21 -11 -55 -19 -85 -19 -53 0 -149 26 -175 48 -8 7 -24 15 -35 18
-49 14 -95 34 -90 39 3 3 -9 11 -27 18 -18 7 -42 21 -53 30 -11 9 -41 29 -67
43 l-47 27 -268 2 -268 2 252 6 c266 5 284 10 198 46 -22 9 -70 36 -106 61
l-66 44 -677 -3 c-372 -2 -676 0 -676 4 0 5 296 9 658 10 589 3 654 5 632 18
-21 13 -100 16 -480 20 l-455 5 445 3 c444 2 445 3 420 22 -23 18 -44 20 -230
22 l-205 2 175 3 c96 2 178 7 183 12 6 6 -4 16 -22 25 -17 9 -55 36 -84 60
-88 72 -74 69 -390 74 -158 3 -286 7 -284 9 3 3 410 57 477 63 3 0 -6 9 -20
20 -23 18 -42 20 -244 20 -121 0 -217 2 -215 4 2 2 67 9 144 16 209 17 225 19
219 34 -2 6 -17 19 -32 28 -33 21 -152 127 -289 259 l-102 99 -238 2 -238 2
165 6 c91 4 193 8 228 9 l63 1 -72 80 -73 80 -175 1 c-108 0 -168 4 -156 9 11
5 84 9 162 9 l143 1 -56 72 c-31 40 -69 87 -85 105 l-28 33 -178 1 c-122 1
-165 4 -138 10 22 4 93 8 157 8 70 1 119 5 123 11 7 11 -40 81 -53 79 -4 0
-29 -8 -57 -17z m-540 -82 c-77 -10 -680 -10 -765 0 -36 4 135 7 380 7 245 0
418 -3 385 -7z m560 -180 c-46 -9 -815 -44 -821 -37 -3 2 57 12 133 22 76 9
143 18 148 20 6 2 138 3 295 3 168 0 269 -3 245 -8z m-737 -337 c-86 -2 -230
-2 -320 0 -90 1 -19 3 157 3 176 0 249 -2 163 -3z m1095 0 c-13 -2 -35 -2 -50
0 -16 2 -5 4 22 4 28 0 40 -2 28 -4z m-835 -50 c-27 -2 -69 -2 -95 0 -27 2 -5
3 47 3 52 0 74 -1 48 -3z m422 -3 c-14 -4 -61 -8 -105 -8 -64 1 -72 2 -40 8
57 10 177 10 145 0z m3458 -167 c-16 -2 -40 -2 -55 0 -16 2 -3 4 27 4 30 0 43
-2 28 -4z m-3168 -93 c-87 -10 -493 -10 -455 0 17 4 140 7 275 7 158 0 222 -3
180 -7z m3485 -20 c-8 -13 -55 -13 -75 0 -11 7 -2 10 33 10 30 0 46 -4 42 -10z
m-220 -20 c-16 -4 -55 -8 -85 -7 -53 0 -54 0 -15 7 22 4 60 7 85 7 40 1 42 0
15 -7z m-2880 -36 c-5 -2 -102 -15 -215 -30 -150 -19 -270 -27 -450 -31 -135
-3 -242 -2 -239 1 4 4 103 20 220 35 184 25 247 29 454 29 132 0 236 -1 230
-4z m3225 -83 c19 -16 31 -33 27 -37 -12 -12 -443 -26 -527 -17 l-75 8 225 36
c288 47 306 47 350 10z m-2970 -37 c-60 -9 -207 -12 -495 -12 -359 1 -401 2
-340 13 49 9 199 13 495 13 385 -1 417 -2 340 -14z m-1132 -71 c-21 -2 -57 -2
-80 0 -24 2 -7 4 37 4 44 0 63 -2 43 -4z m3927 -33 c-27 -5 -117 -10 -200 -13
-82 -3 -136 -3 -120 -1 57 8 240 21 305 21 l65 0 -50 -7z m615 -66 c-64 -16
-605 -84 -662 -83 -72 1 -73 1 -28 11 25 5 81 21 125 34 44 14 114 29 155 33
73 8 440 12 410 5z m-1427 -211 c-13 -2 -35 -2 -50 0 -16 2 -5 4 22 4 28 0 40
-2 28 -4z m1455 2 c-7 -7 -1150 -7 -1156 0 -3 3 257 5 578 5 321 0 581 -2 578
-5z m247 -21 c-16 -13 -54 -36 -82 -50 -51 -25 -61 -26 -265 -30 -142 -3 -205
-1 -188 6 20 7 211 42 510 93 51 9 55 6 25 -19z m-3188 -61 c-137 -2 -357 -2
-490 0 -133 1 -21 2 248 2 270 0 378 -1 242 -2z m-489 -50 c-103 -2 -274 -2
-380 0 -106 1 -22 2 187 2 209 0 296 -1 193 -2z m-550 -50 c-65 -2 -171 -2
-235 0 -65 1 -12 3 117 3 129 0 182 -2 118 -3z m1385 0 c-122 -2 -324 -2 -450
0 -125 1 -25 2 222 2 248 0 350 -1 228 -2z m2427 -3 c-14 -4 -63 -8 -110 -8
-62 1 -76 3 -50 8 49 10 192 10 160 0z m-225 -50 c-126 -10 -579 -9 -505 0 30
4 179 7 330 7 198 0 247 -2 175 -7z m960 -1 c-49 -10 -493 -10 -625 1 -61 4
43 7 285 7 225 1 364 -3 340 -8z m-3482 -56 c-79 -2 -207 -2 -285 0 -79 1 -15
3 142 3 157 0 221 -2 143 -3z m495 0 c-32 -2 -86 -2 -120 0 -35 2 -9 3 57 3
66 0 94 -1 63 -3z m505 0 c-24 -2 -62 -2 -85 0 -24 2 -5 4 42 4 47 0 66 -2 43
-4z m740 0 c-29 -2 -78 -2 -110 0 -32 2 -8 3 52 3 61 0 87 -1 58 -3z m1840
-50 c-62 -2 -164 -2 -225 0 -62 1 -12 3 112 3 124 0 174 -2 113 -3z m-2204
-97 c-7 -7 -424 -36 -497 -35 l-67 1 60 9 c135 20 518 39 504 25z m681 -7
c-170 -33 -547 -72 -529 -55 15 14 416 63 524 63 l50 1 -45 -9z m1617 5 c-3
-3 -185 -19 -404 -35 -349 -25 -453 -28 -847 -29 -247 0 -447 2 -445 4 4 4
350 51 434 59 68 6 1269 7 1262 1z m-3677 -20 c-41 -7 -131 -12 -200 -12 -122
0 -124 1 -75 13 30 8 109 13 200 13 l150 -1 -75 -13z m1197 -40 c-3 -3 -12 -4
-19 -1 -8 3 -5 6 6 6 11 1 17 -2 13 -5z m2041 -21 c-10 -2 -28 -2 -40 0 -13 2
-5 4 17 4 22 1 32 -1 23 -4z m475 0 c-7 -2 -21 -2 -30 0 -10 3 -4 5 12 5 17 0
24 -2 18 -5z m-2995 -49 c-3 -3 -188 -35 -409 -71 -368 -59 -421 -65 -599 -70
-107 -3 -192 -3 -189 1 6 6 416 106 539 131 65 13 670 22 658 9z m510 0 c-3
-3 -178 -34 -389 -69 -331 -56 -401 -64 -518 -65 -75 -1 -140 0 -146 0 -22 4
657 110 819 129 84 10 242 13 234 5z m572 -14 c87 -10 134 -25 125 -40 -21
-35 -60 -39 -526 -54 -255 -9 -511 -18 -569 -22 -58 -3 -102 -3 -99 0 5 6 698
121 774 129 49 5 193 -1 295 -13z m1078 14 c-13 -13 -227 -37 -563 -63 -198
-16 -362 -27 -364 -24 -3 2 1 9 7 15 17 17 15 38 -5 60 -16 17 -1 18 457 18
260 0 471 -3 468 -6z m510 -29 c-25 -26 -495 -85 -578 -73 -40 5 173 46 300
58 222 20 286 23 278 15z m-823 -76 c-49 -10 -130 -21 -180 -23 -105 -6 -93
-2 70 23 162 25 230 25 110 0z m-535 -25 c-36 -7 -139 -10 -128 -2 7 4 42 7
78 7 36 -1 58 -3 50 -5z m-827 -61 c-150 -2 -396 -2 -545 0 -150 1 -28 2 272
2 300 0 422 -1 273 -2z m1890 0 c-7 -2 -19 -2 -25 0 -7 3 -2 5 12 5 14 0 19
-2 13 -5z m575 2 c-11 -12 -324 -63 -337 -55 -15 8 -2 11 169 44 74 14 178 21
168 11z m-625 -12 c-7 -2 -21 -2 -30 0 -10 3 -4 5 12 5 17 0 24 -2 18 -5z
m-2503 -44 c-499 -45 -562 -49 -857 -50 -172 -2 -315 0 -318 2 -2 3 129 17
293 31 243 20 359 25 637 25 254 0 316 -2 245 -8z m2705 -24 c-20 -8 -308 -55
-312 -52 -6 7 71 37 117 46 43 8 215 13 195 6z m-1665 -26 c-25 -4 -56 -7 -70
-7 -23 0 -22 1 5 8 17 4 48 8 70 8 l40 -1 -45 -8z m1280 -5 c0 -3 -26 -16 -57
-30 -44 -20 -127 -36 -367 -71 l-311 -46 -345 -4 c-190 -3 -342 -2 -339 1 9
10 310 44 804 91 401 38 541 53 608 64 4 0 7 -1 7 -5z m496 -9 c17 -13 11 -14
-65 -15 -91 0 -99 6 -30 19 65 13 73 12 95 -4z m-1568 -22 c-10 -2 -28 -2 -40
0 -13 2 -5 4 17 4 22 1 32 -1 23 -4z m-258 -29 c-184 -21 -278 -28 -254 -18
21 9 330 42 389 42 36 0 -19 -10 -135 -24z m1839 -3 c38 -10 -334 -60 -499
-66 -80 -3 -158 -8 -175 -11 -21 -3 -26 -1 -19 6 13 13 269 57 399 69 111 10
262 11 294 2z m-2401 -11 c-15 -4 -102 -15 -195 -24 -92 -9 -195 -19 -228 -22
-33 -4 -58 -4 -55 -1 3 3 82 14 175 26 151 19 220 25 305 28 25 1 25 1 -2 -7z
m-493 -5 c-5 -2 -141 -20 -301 -40 -244 -30 -318 -35 -450 -33 l-159 3 360 33
c198 19 367 35 375 37 22 4 187 4 175 0z m768 -12 c-7 -2 -19 -2 -25 0 -7 3
-2 5 12 5 14 0 19 -2 13 -5z m2 -49 c-38 -7 -95 -13 -125 -12 -66 0 -51 5 50
17 116 13 156 11 75 -5z m1985 -75 c-36 -9 -257 -22 -230 -14 19 6 182 22 230
23 l35 0 -35 -9z m-2617 -16 c-40 -2 -107 -2 -150 0 -43 1 -10 3 72 3 83 0
118 -2 78 -3z m740 0 c-72 -2 -194 -2 -270 0 -76 1 -16 3 132 3 149 0 211 -2
138 -3z m-635 -69 c-4 -3 -96 -14 -205 -24 -109 -11 -218 -22 -242 -25 -25 -3
-42 -3 -39 0 6 6 210 42 273 48 69 6 219 7 213 1z m1932 -4 c-34 -11 -391 -11
-365 0 11 5 103 8 205 8 107 0 174 -3 160 -8z m865 0 c-29 -12 -194 -12 -175
0 8 5 56 9 105 9 59 0 83 -3 70 -9z m-292 -7 c-13 -2 -35 -2 -50 0 -16 2 -5 4
22 4 28 0 40 -2 28 -4z m-2344 -27 c-8 -7 -587 -58 -606 -53 -11 3 -7 5 12 6
17 1 156 15 310 30 258 25 296 28 284 17z m1171 -20 c0 -14 -182 -60 -326 -82
-150 -23 -206 -27 -499 -30 -239 -3 -323 -1 -305 7 14 6 111 15 215 20 215 10
396 30 600 64 122 20 315 33 315 21z m205 -6 c-22 -4 -67 -10 -100 -14 -57 -5
-59 -5 -30 9 18 8 59 14 100 13 62 0 65 -1 30 -8z m779 -10 c-63 -16 -371 -34
-359 -21 3 2 33 12 67 22 48 13 98 17 213 17 l150 0 -71 -18z m-504 -19 c-25
-15 -130 -31 -194 -30 -54 1 -46 4 64 19 156 22 148 21 130 11z m-272 -38
c-10 -2 -26 -2 -35 0 -10 3 -2 5 17 5 19 0 27 -2 18 -5z m987 -9 c-70 -7 -295
-8 -295 -1 0 4 73 6 163 5 89 0 149 -3 132 -4z m-2505 -14 c-42 -10 -579 -44
-606 -38 -10 2 80 12 201 22 121 10 225 19 230 21 6 2 55 3 110 3 75 0 91 -2
65 -8z m1830 -1 c-25 -4 -58 -7 -75 -7 -29 1 -29 1 5 8 19 4 53 7 75 7 l40 0
-45 -8z m-2482 -46 c-10 -2 -26 -2 -35 0 -10 3 -2 5 17 5 19 0 27 -2 18 -5z
m797 -13 c-65 -11 -283 -10 -235 0 19 4 91 7 160 7 96 0 113 -1 75 -7z m2220
-6 c-17 -6 -657 -95 -660 -92 -10 10 133 93 169 98 43 5 508 1 491 -6z m-1190
-15 c-100 -18 -370 -57 -373 -55 -1 2 24 13 55 26 66 26 149 37 278 37 83 0
86 0 40 -8z m560 -5 c-45 -35 -143 -83 -187 -93 -69 -16 -558 -49 -547 -37 11
12 222 67 313 82 114 18 406 62 426 63 11 0 10 -4 -5 -15z m-936 -4 c-9 -5
-58 -25 -110 -43 -92 -34 -100 -35 -334 -46 -132 -6 -260 -14 -285 -17 -105
-13 -17 9 206 52 157 30 283 48 369 53 72 4 139 8 150 9 17 1 18 0 4 -8z
m-750 -24 c-2 -3 -65 -12 -139 -20 -145 -17 -458 -21 -385 -5 64 14 536 36
524 25z m811 -96 c-14 -4 -38 -8 -55 -8 -29 1 -29 1 5 8 50 11 83 11 50 0z
m795 -117 c-22 -3 -179 -27 -350 -54 -220 -36 -349 -51 -445 -54 l-135 -5 180
25 c99 14 286 40 415 59 129 18 267 33 305 33 40 0 53 -2 30 -4z m-917 -8 c-7
-7 -455 -85 -488 -85 -20 0 -14 7 35 37 l60 38 175 5 c96 4 186 7 199 8 13 1
22 0 19 -3z m1127 -26 c-87 -14 -516 -61 -521 -56 -13 13 388 64 506 64 l65 1
-50 -9z m345 -19 c-132 -26 -335 -48 -295 -31 11 5 90 18 175 30 85 11 166 22
180 24 89 14 53 0 -60 -23z m-790 -100 c-30 -5 -73 -8 -95 -8 -38 0 -39 1 -10
8 17 4 59 8 95 7 l65 0 -55 -7z m-352 -51 c-17 -10 -314 -29 -423 -28 l-60 1
45 9 c108 22 470 37 438 18z m432 -60 c-275 -50 -574 -84 -525 -60 30 15 497
77 585 78 31 1 11 -5 -60 -18z m-530 -10 c-25 -10 -194 -24 -175 -14 15 7 123
22 165 23 33 1 33 0 10 -9z"/>
</g>
</svg>
