<?xml version="1.0" standalone="no"?>
<!DOCTYPE svg PUBLIC "-//W3C//DTD SVG 20010904//EN"
 "http://www.w3.org/TR/2001/REC-SVG-20010904/DTD/svg10.dtd">
<svg version="1.0" xmlns="http://www.w3.org/2000/svg"
 width="1287.000000pt" height="1920.000000pt" viewBox="0 0 1287.000000 1920.000000"
 preserveAspectRatio="xMidYMid meet">

<g transform="translate(0.000000,1920.000000) scale(0.100000,-0.100000)"
fill="#000000" stroke="none">
<path d="M6075 19189 c-1135 -63 -2227 -423 -3170 -1044 -479 -315 -876 -657
-1286 -1110 -80 -89 -233 -277 -334 -410 -1378 -1833 -1669 -4277 -763 -6389
134 -312 327 -673 519 -966 59 -91 1128 -1922 2375 -4070 3096 -5331 3010
-5185 3019 -5185 4 0 622 1053 1372 2340 751 1287 2016 3456 2811 4820 1508
2584 1607 2761 1761 3135 497 1207 619 2524 350 3795 -457 2164 -2013 3953
-4095 4708 -811 295 -1694 425 -2559 376z m805 -1955 c1715 -160 3212 -1279
3858 -2884 322 -801 412 -1700 256 -2560 -111 -608 -344 -1187 -689 -1710
-175 -266 -329 -455 -564 -694 -789 -804 -1812 -1283 -2934 -1375 -165 -14
-579 -14 -744 0 -996 82 -1931 476 -2675 1128 -369 323 -688 705 -937 1119
-444 742 -670 1609 -648 2482 18 692 168 1304 472 1925 601 1229 1728 2136
3058 2459 299 73 545 108 922 130 112 7 459 -4 625 -20z"/>
<path d="M5944 14809 c-338 -700 -474 -974 -489 -979 -11 -5 -481 -79 -1045
-165 -564 -86 -1038 -160 -1053 -164 -26 -6 15 -47 753 -751 474 -453 780
-752 780 -763 0 -10 -77 -491 -170 -1069 -94 -578 -169 -1052 -168 -1053 2 -2
428 226 948 506 520 279 951 508 958 509 7 0 443 -221 968 -491 526 -270 957
-489 959 -487 1 1 -84 480 -190 1063 l-193 1060 771 765 771 765 -985 134
c-1190 161 -1159 156 -1168 167 -5 5 -225 439 -491 964 -265 525 -483 956
-485 958 -1 1 -213 -435 -471 -969z"/>
</g>
</svg>
