<?xml version="1.0" encoding="UTF-8"?>
<!DOCTYPE svg PUBLIC "-//W3C//DTD SVG 1.1//EN" "http://www.w3.org/Graphics/SVG/1.1/DTD/svg11.dtd">
<svg xmlns="http://www.w3.org/2000/svg" version="1.1" width="512px" height="512px" style="shape-rendering:geometricPrecision; text-rendering:geometricPrecision; image-rendering:optimizeQuality; fill-rule:evenodd; clip-rule:evenodd" xmlns:xlink="http://www.w3.org/1999/xlink">
<g><path style="opacity:0.99" fill="#000000" d="M 65.5,-0.5 C 192.167,-0.5 318.833,-0.5 445.5,-0.5C 481.173,7.83921 503.173,29.8392 511.5,65.5C 511.5,192.167 511.5,318.833 511.5,445.5C 503.167,481.167 481.167,503.167 445.5,511.5C 318.833,511.5 192.167,511.5 65.5,511.5C 29.8275,503.161 7.82746,481.161 -0.5,445.5C -0.5,318.833 -0.5,192.167 -0.5,65.5C 7.83333,29.8333 29.8333,7.83333 65.5,-0.5 Z M 77.5,23.5 C 196.167,23.3333 314.834,23.5 433.5,24C 466.471,27.3039 484.304,45.4705 487,78.5C 487.667,196.5 487.667,314.5 487,432.5C 484.304,465.529 466.471,483.696 433.5,487C 314.833,487.667 196.167,487.667 77.5,487C 44.5295,483.696 26.6961,465.529 24,432.5C 23.3333,314.5 23.3333,196.5 24,78.5C 26.8747,45.4601 44.7081,27.1268 77.5,23.5 Z M 245.5,118.5 C 277.787,115.989 298.953,129.989 309,160.5C 313.466,184.112 306.299,203.278 287.5,218C 257.894,235.038 232.061,230.538 210,204.5C 194.18,175.942 198.347,150.775 222.5,129C 229.579,124.037 237.246,120.537 245.5,118.5 Z M 177.5,281.5 C 229.172,313.473 280.839,313.473 332.5,281.5C 366.309,304.927 386.309,337.094 392.5,378C 301.168,398.666 209.835,398.666 118.5,378C 124.824,337.492 144.49,305.325 177.5,281.5 Z"/></g>
<g><path style="opacity:0.953" fill="#000000" d="M 242.5,93.5 C 284.525,89.9169 314.025,107.25 331,145.5C 341.793,181.847 332.96,212.347 304.5,237C 271.833,259 239.167,259 206.5,237C 176.278,210.589 168.111,178.422 182,140.5C 194.511,114.844 214.678,99.1772 242.5,93.5 Z M 245.5,118.5 C 237.246,120.537 229.579,124.037 222.5,129C 198.347,150.775 194.18,175.942 210,204.5C 232.061,230.538 257.894,235.038 287.5,218C 306.299,203.278 313.466,184.112 309,160.5C 298.953,129.989 277.787,115.989 245.5,118.5 Z"/></g>
<g><path style="opacity:0.955" fill="#000000" d="M 174.5,253.5 C 177.85,253.335 181.183,253.502 184.5,254C 223.535,284.586 265.201,288.586 309.5,266C 315.342,262.246 321.009,258.246 326.5,254C 331.44,252.959 336.106,253.626 340.5,256C 387.485,285.868 413.152,328.702 417.5,384.5C 419.179,393.642 415.513,399.142 406.5,401C 317.627,420.346 228.294,422.679 138.5,408C 125.02,405.63 111.687,402.63 98.5,399C 96.6217,397.457 95.1217,395.624 94,393.5C 95.2743,331.931 122.108,285.264 174.5,253.5 Z M 177.5,281.5 C 144.49,305.325 124.824,337.492 118.5,378C 209.835,398.666 301.168,398.666 392.5,378C 386.309,337.094 366.309,304.927 332.5,281.5C 280.839,313.473 229.172,313.473 177.5,281.5 Z"/></g>
</svg>
